<svg width="85" height="90" viewBox="0 0 85 90" fill="none" xmlns="http://www.w3.org/2000/svg">
<path d="M71.7531 2.67638H58.8496C53.0599 2.67638 48.7763 8.06408 50.0812 13.7049L51.2065 18.569C51.5699 20.1398 52.6161 21.4661 54.0592 22.1851L66.1435 28.2066C70.2355 30.2456 74.8517 26.5943 73.8097 22.1427L72.3515 15.9126C71.7949 13.5345 69.3599 12.1076 67.0131 12.7843V12.7843C58.9963 15.096 54.6803 23.7784 57.6774 31.565L59.0024 35.0074C59.9697 37.5207 62.6729 38.904 65.2772 38.2185L70.3063 36.8947C74.1399 35.8857 77.7179 39.2136 76.9887 43.1101L71.5516 72.165C70.9742 75.2501 67.8974 77.1947 64.863 76.3922L59.934 75.0886C57.3525 74.4059 56.3867 71.2489 58.1443 69.2386L64.1633 62.3547C66.2077 60.0165 65.8631 56.4398 63.4099 54.535L61.5564 53.0959L51.5407 46.1152C50.0928 45.1061 49.2294 43.4531 49.2284 41.6883L49.222 31.0192C49.2214 30.0758 49.0725 29.1383 48.7808 28.2412L42.8825 10.1045C42.3278 8.3987 40.9622 7.07971 39.2382 6.58445L27.0801 3.09165C23.4175 2.03947 19.4715 2.99533 16.6965 5.60694L5.31249 16.3204C3.06985 18.4309 3.04357 21.9866 5.25478 24.1301L9.92958 28.6617C11.7726 30.4482 12.1033 33.2853 10.7206 35.4478L8.279 39.2666C7.0827 41.1377 7.15393 43.5504 8.45852 45.3477L17.0022 57.1176C19.2262 60.1814 24.0651 58.1768 23.471 54.4379L17.6224 17.6313C16.8434 12.6972 20.6976 7.29105 26.6482 9.08564C34.2991 11.393 27.9733 23.6133 26.6981 29.168C26.6492 29.381 26.5963 29.6321 26.5404 29.9133C25.8914 33.1797 29.7719 35.3093 32.2948 33.1354L33.1041 32.4381C33.6417 31.9749 34.0516 31.3816 34.2947 30.715V30.715C34.6763 29.6683 35.4626 28.819 36.4767 28.3577L36.7404 28.2378C40.8486 26.3693 45.0544 30.6405 43.1226 34.7194L42.8064 35.3871C42.4806 36.0749 42.0055 36.6813 41.4156 37.1621L34.2527 43.0003C34.0339 43.1787 33.8016 43.3383 33.5605 43.4853C32.4925 44.1368 30.9357 45.1888 29.6739 46.0582C28.3602 46.9633 27.6766 48.5304 27.8818 50.1125V50.1125C28.3045 53.3696 32.0693 54.9758 34.713 53.0269L34.8134 52.9529C35.0697 52.7639 35.3047 52.5476 35.5142 52.3077L39.6899 47.5252C40.6605 46.4136 42.1313 45.8741 43.5905 46.0944V46.0944C45.8086 46.4294 47.4016 48.4058 47.2578 50.6445L47.2537 50.709C47.1581 52.1971 46.314 53.535 45.0122 54.2621L36.9287 58.7765C33.1073 60.9107 34.3793 66.7056 38.7433 67.043V67.043C40.0035 67.1405 41.2451 66.6938 42.1544 65.8159L50.4671 57.7903C51.0398 57.2374 51.7666 56.871 52.5517 56.7395V56.7395C55.4772 56.2493 57.8739 59.0472 56.9403 61.8628L56.7638 62.395C56.5554 63.0235 56.2039 63.5951 55.7369 64.0645L35.9036 84.006C34.3929 85.525 31.898 85.3965 30.5513 83.7303L24.4209 76.1455C23.2501 74.6969 20.9987 74.8409 20.022 76.427L17.7149 80.1735C16.9374 81.436 15.675 82.3233 14.2237 82.6273L8.79622 83.7639C7.21341 84.0954 5.39738 83.7453 4.82951 82.2311C4.24692 80.6777 4.37234 78.5302 6.72092 76.1692C10.4613 72.4091 9.69625 68.6205 8.84615 67.1962C8.23441 66.4056 6.41775 64.9646 5.11536 63.9764C4.2103 63.2897 3.57459 62.3026 3.35708 61.1875L3.18995 60.3307C2.47515 56.6662 6.615 54.0184 9.64192 56.204V56.204C9.92706 56.4099 10.1846 56.6515 10.4084 56.9229L12.8444 59.8773C13.5613 60.7468 13.9882 61.8187 14.0653 62.943L14.3247 66.7235C14.5238 69.626 17.9052 71.1057 20.1723 69.2825L21.4019 68.2936C23.6516 66.4844 26.9266 66.764 28.8609 68.9071C30.8087 71.0651 33.2399 73.7211 35.1991 75.7419C37.6729 78.2937 40.6388 81.4048 42.7332 83.6098C44.4384 85.405 46.8034 86.424 49.2794 86.424H76.9793C79.9616 86.424 82.3792 84.0064 82.3792 81.024V8.07639C82.3792 5.09405 79.9616 2.67638 76.9792 2.67638H71.7531Z" stroke="#C2D6FF" stroke-width="4.5"/>
<path d="M71.2154 2.67443H68.7341M59.1478 2.67443H58.8496C53.0599 2.67443 48.7763 8.06213 50.0812 13.7029L51.2065 18.5671C51.5699 20.1379 52.6162 21.4641 54.0592 22.1832L66.1435 28.2046C70.2355 30.2437 74.8517 26.5923 73.8097 22.1408L72.5145 16.6071C71.8858 13.9213 69.0378 12.4015 66.4567 13.3745L64.9707 13.9347C61.5981 15.2061 58.983 17.9369 57.8586 21.3613V21.3613M75.5639 51.1036L77.0312 43.0757C77.7422 39.1858 74.1687 35.8761 70.3447 36.8827L65.8781 38.0584C63.012 38.8128 59.9303 37.1638 58.7418 34.4488C58.1694 33.1412 57.5846 31.5947 57.0298 29.1147C57.0243 29.09 57.0185 29.0646 57.0128 29.0399C56.9592 28.8056 56.6714 27.5043 56.6714 26.5403M73.8902 59.65L71.5508 72.1619C70.9739 75.2475 67.8968 77.1926 64.8621 76.39L59.9098 75.0803C57.3342 74.3991 56.3651 71.2533 58.111 69.2408L64.0947 62.3434C66.0916 60.0416 65.7895 56.5444 63.4275 54.6191L61.5564 53.0939L51.5407 46.1133C50.0928 45.1041 49.2294 43.4512 49.2284 41.6863L49.222 31.0172C49.2214 30.0738 49.0725 29.1364 48.7808 28.2392L47.4912 24.2739M44.7827 15.9455L42.8825 10.1025C42.3278 8.39675 40.9622 7.07776 39.2382 6.5825L27.0801 3.0897C23.4175 2.03752 19.4715 2.99338 16.6965 5.60498L5.31248 16.3184C3.06984 18.429 3.04357 21.9847 5.25478 24.1282L10.0449 28.7715C11.8354 30.5071 12.2046 33.243 10.9383 35.3911L8.16674 40.0927C7.0383 42.007 7.19772 44.4171 8.56847 46.166L10.2338 48.2908M15.4024 54.8856L16.8565 56.7776C19.1269 59.7316 23.8394 57.7138 23.2684 54.0321L19.0947 27.1219M51.5756 68.2466L55.7369 64.0626C56.2039 63.5931 56.5554 63.0216 56.7638 62.3931V62.3931C57.7775 59.3359 55.1752 56.298 51.9987 56.8302L51.3464 56.9395L42.6138 65.4067C41.9159 66.0833 41.1538 66.7326 40.2222 67.0097C36.4318 68.1372 33.7029 64.4832 34.6285 61.574M45.4002 74.4557L35.9036 84.0041C34.3929 85.5231 31.898 85.3946 30.5513 83.7284L24.4209 76.1436C23.2501 74.6949 20.9987 74.839 20.022 76.425L17.7149 80.1715C16.9374 81.4341 15.675 82.3214 14.2237 82.6253L8.79622 83.762C7.21342 84.0935 5.39738 83.7433 4.82951 82.2292C4.24692 80.6758 4.37234 78.5282 6.72092 76.1673C10.4613 72.4072 9.69625 68.6186 8.84615 67.1943C8.23441 66.4036 6.41775 64.9627 5.11536 63.9745C4.2103 63.2878 3.57459 62.3006 3.35708 61.1856L3.18995 60.3287C2.47515 56.6642 6.615 54.0164 9.64192 56.2021V56.2021C9.92706 56.408 10.1846 56.6495 10.4084 56.9209L12.8444 59.8754C13.5613 60.7448 13.9882 61.8168 14.0653 62.941L14.3247 66.7215C14.5238 69.624 17.9052 71.1038 20.1723 69.2805L21.4019 68.2917C23.6516 66.4824 26.9266 66.762 28.8609 68.9052C30.8087 71.0632 33.2399 73.7191 35.1991 75.74C35.8614 76.4231 36.7637 77.3615 37.6806 78.3176M61.661 86.4221H71.2189M52.0099 86.4221H49.2794C46.8034 86.4221 44.4371 85.4016 42.7318 83.6063C42.3663 83.2215 41.9742 82.8091 41.5629 82.3769M47.0601 51.8489V51.8489C48.1485 49.2928 46.4914 46.4049 43.7354 46.0548L43.5405 46.03C42.1076 45.848 40.6782 46.3915 39.7281 47.4795L35.5142 52.3057C35.3047 52.5456 35.0697 52.762 34.8134 52.951L34.713 53.0249C32.0693 54.9739 28.3045 53.3676 27.8818 50.1105V50.1105C27.6766 48.5285 28.3602 46.9614 29.6739 46.0563C30.9357 45.1869 32.4925 44.1348 33.5605 43.4834C33.8016 43.3364 34.0339 43.1768 34.2527 42.9984L41.3898 37.1812C41.9963 36.6869 42.4812 36.0601 42.8073 35.3489L43.1211 34.6647C44.9797 30.6122 40.8247 26.4197 36.7556 28.2419L36.4858 28.3628C35.4665 28.8192 34.6754 29.6689 34.2928 30.7181V30.7181C34.0509 31.3814 33.6431 31.9717 33.1082 32.4326L32.2948 33.1334C29.7719 35.3073 25.8914 33.1778 26.5404 29.9114C26.5963 29.6302 26.6492 29.379 26.6981 29.166C27.9733 23.6113 34.2991 11.391 26.6482 9.08369C20.6976 7.2891 16.805 12.5561 17.6224 17.6294L18.1171 20.8186M39.9377 57.1223L41.5629 56.1898" stroke="#1F6FF8" stroke-linecap="round"/>
<path fill-rule="evenodd" clip-rule="evenodd" d="M67.0856 1.14519C67.2233 1.27431 67.2303 1.49063 67.1011 1.62835L66.0809 2.71662L67.1011 3.80489C67.2303 3.94261 67.2233 4.15894 67.0856 4.28805C66.9478 4.41717 66.7315 4.41019 66.6024 4.27247L65.363 2.95041C65.2397 2.81892 65.2397 2.61432 65.363 2.48283L66.6024 1.16077C66.7315 1.02305 66.9478 1.01607 67.0856 1.14519Z" fill="#1F6FF8"/>
<path fill-rule="evenodd" clip-rule="evenodd" d="M64.7862 1.14616C64.924 1.27528 64.9309 1.4916 64.8018 1.62933L63.7816 2.7176L64.8018 3.80586C64.9309 3.94359 64.924 4.15991 64.7862 4.28903C64.6485 4.41815 64.4322 4.41117 64.3031 4.27344L63.0636 2.95139C62.9404 2.8199 62.9404 2.61529 63.0636 2.48381L64.3031 1.16175C64.4322 1.02402 64.6485 1.01705 64.7862 1.14616Z" fill="#1F6FF8"/>
<path fill-rule="evenodd" clip-rule="evenodd" d="M62.4874 1.14714C62.6251 1.27626 62.6321 1.49258 62.503 1.63031L61.4827 2.71857L62.503 3.80684C62.6321 3.94457 62.6251 4.16089 62.4874 4.29001C62.3497 4.41913 62.1334 4.41215 62.0042 4.27442L60.7648 2.95236C60.6415 2.82088 60.6415 2.61627 60.7648 2.48478L62.0042 1.16273C62.1334 1.025 62.3497 1.01802 62.4874 1.14714Z" fill="#1F6FF8"/>
<path fill-rule="evenodd" clip-rule="evenodd" d="M53.7621 84.8913C53.6244 85.0204 53.6174 85.2367 53.7465 85.3744L54.7668 86.4627L53.7465 87.551C53.6174 87.6887 53.6244 87.905 53.7621 88.0341C53.8998 88.1633 54.1161 88.1563 54.2453 88.0186L55.4847 86.6965C55.608 86.565 55.608 86.3604 55.4847 86.2289L54.2453 84.9069C54.1161 84.7691 53.8998 84.7622 53.7621 84.8913Z" fill="#1F6FF8"/>
<path fill-rule="evenodd" clip-rule="evenodd" d="M56.0614 84.8923C55.9237 85.0214 55.9167 85.2377 56.0458 85.3754L57.0661 86.4637L56.0458 87.552C55.9167 87.6897 55.9237 87.906 56.0614 88.0351C56.1991 88.1642 56.4155 88.1573 56.5446 88.0195L57.784 86.6975C57.9073 86.566 57.9073 86.3614 57.784 86.2299L56.5446 84.9078C56.4155 84.7701 56.1991 84.7631 56.0614 84.8923Z" fill="#1F6FF8"/>
<path fill-rule="evenodd" clip-rule="evenodd" d="M58.3602 84.8932C58.2225 85.0224 58.2155 85.2387 58.3447 85.3764L59.3649 86.4647L58.3447 87.5529C58.2155 87.6907 58.2225 87.907 58.3602 88.0361C58.498 88.1652 58.7143 88.1582 58.8434 88.0205L60.0828 86.6985C60.2061 86.567 60.2061 86.3624 60.0828 86.2309L58.8434 84.9088C58.7143 84.7711 58.498 84.7641 58.3602 84.8932Z" fill="#1F6FF8"/>
<path fill-rule="evenodd" clip-rule="evenodd" d="M73.8048 51.8315C73.9583 51.7216 74.1718 51.7569 74.2817 51.9104L75.1503 53.1232L76.4165 52.3347C76.5768 52.2349 76.7876 52.2839 76.8874 52.4441C76.9872 52.6044 76.9382 52.8152 76.7779 52.915L75.2397 53.873C75.0867 53.9682 74.886 53.9283 74.781 53.7818L73.7259 52.3085C73.616 52.155 73.6513 51.9415 73.8048 51.8315Z" fill="#1F6FF8"/>
<path fill-rule="evenodd" clip-rule="evenodd" d="M73.3575 54.0864C73.511 53.9765 73.7246 54.0118 73.8345 54.1653L74.703 55.3781L75.9693 54.5895C76.1295 54.4897 76.3403 54.5388 76.4401 54.699C76.5399 54.8593 76.4909 55.0701 76.3307 55.1699L74.7924 56.1278C74.6394 56.2231 74.4387 56.1832 74.3338 56.0367L73.2787 54.5634C73.1687 54.4099 73.2041 54.1963 73.3575 54.0864Z" fill="#1F6FF8"/>
<path fill-rule="evenodd" clip-rule="evenodd" d="M72.9103 56.3413C73.0638 56.2314 73.2773 56.2667 73.3872 56.4202L74.2557 57.633L75.522 56.8444C75.6823 56.7446 75.8931 56.7936 75.9929 56.9539C76.0927 57.1141 76.0437 57.325 75.8834 57.4247L74.3451 58.3827C74.1921 58.478 73.9914 58.4381 73.8865 58.2916L72.8314 56.8182C72.7215 56.6648 72.7568 56.4512 72.9103 56.3413Z" fill="#1F6FF8"/>
<path fill-rule="evenodd" clip-rule="evenodd" d="M12.1978 47.7575C12.0124 47.7218 11.8332 47.8431 11.7974 48.0285L11.5151 49.4933L10.0352 49.3059C9.84789 49.2822 9.67684 49.4148 9.65313 49.6021C9.62942 49.7894 9.76203 49.9604 9.94932 49.9841L11.7472 50.2117C11.926 50.2344 12.0916 50.1143 12.1257 49.9373L12.4687 48.1579C12.5045 47.9725 12.3832 47.7933 12.1978 47.7575Z" fill="#1F6FF8"/>
<path fill-rule="evenodd" clip-rule="evenodd" d="M13.5459 49.6198C13.3606 49.5841 13.1813 49.7054 13.1456 49.8908L12.8632 51.3556L11.3833 51.1682C11.196 51.1445 11.025 51.2771 11.0013 51.4644C10.9776 51.6517 11.1102 51.8227 11.2975 51.8464L13.0953 52.074C13.2741 52.0967 13.4398 51.9766 13.4739 51.7996L13.8169 50.0202C13.8526 49.8348 13.7313 49.6556 13.5459 49.6198Z" fill="#1F6FF8"/>
<path fill-rule="evenodd" clip-rule="evenodd" d="M14.8946 51.4812C14.7092 51.4454 14.53 51.5668 14.4942 51.7521L14.2119 53.2169L12.732 53.0295C12.5447 53.0058 12.3736 53.1384 12.3499 53.3257C12.3262 53.513 12.4588 53.6841 12.6461 53.7078L14.4439 53.9354C14.6227 53.958 14.7884 53.8379 14.8225 53.661L15.1655 51.8815C15.2012 51.6961 15.0799 51.5169 14.8946 51.4812Z" fill="#1F6FF8"/>
<path fill-rule="evenodd" clip-rule="evenodd" d="M49.7507 67.7087C49.9393 67.7026 50.0972 67.8506 50.1033 68.0393L50.1514 69.5303L51.6424 69.5784C51.8311 69.5845 51.9791 69.7424 51.973 69.931C51.9669 70.1197 51.809 70.2678 51.6203 70.2617L49.8091 70.2032C49.6289 70.1974 49.4843 70.0528 49.4785 69.8726L49.42 68.0614C49.4139 67.8727 49.562 67.7148 49.7507 67.7087Z" fill="#1F6FF8"/>
<path fill-rule="evenodd" clip-rule="evenodd" d="M48.1257 69.3347C48.3143 69.3286 48.4722 69.4766 48.4783 69.6653L48.5264 71.1563L50.0174 71.2043C50.2061 71.2104 50.3541 71.3683 50.348 71.557C50.3419 71.7457 50.184 71.8937 49.9953 71.8876L48.1841 71.8292C48.0039 71.8234 47.8593 71.6787 47.8535 71.4986L47.795 69.6873C47.7889 69.4987 47.937 69.3408 48.1257 69.3347Z" fill="#1F6FF8"/>
<path fill-rule="evenodd" clip-rule="evenodd" d="M46.5007 70.9616C46.6893 70.9555 46.8472 71.1036 46.8533 71.2923L46.9014 72.7832L48.3924 72.8313C48.5811 72.8374 48.7291 72.9953 48.723 73.184C48.7169 73.3727 48.559 73.5207 48.3703 73.5146L46.5591 73.4562C46.3789 73.4504 46.2343 73.3057 46.2285 73.1255L46.17 71.3143C46.1639 71.1256 46.312 70.9677 46.5007 70.9616Z" fill="#1F6FF8"/>
<path fill-rule="evenodd" clip-rule="evenodd" d="M45.5701 23.444C45.7356 23.5349 45.9434 23.4744 46.0343 23.309L46.7526 22.0016L48.1036 22.6341C48.2746 22.7141 48.4781 22.6404 48.5581 22.4694C48.6381 22.2984 48.5644 22.095 48.3935 22.0149L46.7522 21.2465C46.589 21.1701 46.3945 21.2335 46.3077 21.3915L45.4351 22.9798C45.3442 23.1453 45.4047 23.3531 45.5701 23.444Z" fill="#1F6FF8"/>
<path fill-rule="evenodd" clip-rule="evenodd" d="M44.8577 21.2584C45.0232 21.3493 45.231 21.2889 45.3219 21.1234L46.0402 19.816L47.3912 20.4485C47.5622 20.5286 47.7656 20.4549 47.8457 20.2839C47.9257 20.1129 47.852 19.9094 47.6811 19.8294L46.0398 19.061C45.8766 18.9846 45.6821 19.048 45.5953 19.206L44.7227 20.7943C44.6318 20.9597 44.6923 21.1675 44.8577 21.2584Z" fill="#1F6FF8"/>
<path fill-rule="evenodd" clip-rule="evenodd" d="M44.1458 19.0719C44.3113 19.1628 44.5191 19.1024 44.61 18.9369L45.3283 17.6295L46.6793 18.262C46.8502 18.342 47.0537 18.2683 47.1338 18.0974C47.2138 17.9264 47.1401 17.7229 46.9691 17.6428L45.3279 16.8745C45.1647 16.798 44.9702 16.8615 44.8834 17.0194L44.0108 18.6077C43.9199 18.7732 43.9804 18.981 44.1458 19.0719Z" fill="#1F6FF8"/>
<path fill-rule="evenodd" clip-rule="evenodd" d="M74.0556 0.824219H74.503V0.449219H74.0456V0.824219C73.9914 0.822157 73.9333 0.823237 73.8752 0.824317H73.8752H73.8752C73.7807 0.826074 73.6862 0.82783 73.6082 0.816069V0.449219H73.1508C73.1484 0.495567 73.1496 0.544918 73.1509 0.594268V0.594268V0.594269C73.153 0.675365 73.155 0.756458 73.1408 0.824219H72.7033V1.19922H73.1508V1.57422H72.7026V1.94922H73.1501V2.32422C73.0808 2.32466 73.0006 2.32438 72.9236 2.32412H72.9236H72.9236C72.8403 2.32384 72.7607 2.32357 72.7026 2.32422V2.69922H73.1509C73.1485 2.74557 73.1497 2.79492 73.151 2.84427C73.153 2.92536 73.1551 3.00646 73.1409 3.07422H72.7034V3.44922H73.1509V3.82422H72.7026V4.19922H73.1501V4.57422C73.0809 4.57466 73.0007 4.57438 72.9238 4.57412H72.9237H72.9236H72.9236H72.9235H72.9234H72.9234C72.8401 4.57384 72.7606 4.57357 72.7026 4.57422V4.94922H73.16V4.58237C73.238 4.57061 73.3325 4.57237 73.427 4.57412C73.4851 4.5752 73.5432 4.57628 73.5975 4.57422V4.94922H74.0549V4.57422H74.5023V4.19922H74.0648C74.0506 4.13146 74.0527 4.05036 74.0548 3.96927C74.056 3.91992 74.0573 3.87057 74.0549 3.82422H74.5031V3.44922C74.4451 3.44857 74.3655 3.44884 74.2822 3.44912H74.2822H74.2822H74.2821C74.2051 3.44938 74.1249 3.44966 74.0557 3.44922V3.07422H74.5031V2.69922H74.0549V2.32422H74.5023V1.94922H74.0648C74.0506 1.88146 74.0527 1.80037 74.0548 1.71927V1.71927C74.056 1.66992 74.0573 1.62057 74.0549 1.57422H74.503V1.19922C74.445 1.19857 74.3654 1.19884 74.2821 1.19912H74.2821H74.2821H74.282H74.282C74.205 1.19938 74.1248 1.19966 74.0556 1.19922V0.824219ZM74.0456 1.57422V1.20737C73.9676 1.19561 73.8731 1.19737 73.7787 1.19912C73.7205 1.2002 73.6624 1.20128 73.6082 1.19922V1.57422H74.0456ZM73.5975 1.57422H73.16V1.94922C73.2143 1.94716 73.2724 1.94824 73.3305 1.94932C73.425 1.95107 73.5195 1.95283 73.5975 1.94107V1.57422ZM74.0457 2.69922H73.6082V3.06607C73.6862 3.07783 73.7807 3.07607 73.8752 3.07432C73.9334 3.07324 73.9915 3.07216 74.0457 3.07422V2.69922ZM73.5975 2.69922V2.32422C73.5432 2.32628 73.4851 2.3252 73.427 2.32412C73.3325 2.32237 73.238 2.32061 73.16 2.33237V2.69922H73.5975ZM73.3287 1.19961H73.3287H73.3287C73.2711 1.19858 73.2134 1.19755 73.1595 1.19951V0.824512H73.5969V1.19136C73.5183 1.20299 73.4235 1.2013 73.3287 1.19961H73.3287H73.3287ZM73.16 3.82422V4.19922C73.2143 4.19716 73.2724 4.19824 73.3305 4.19932C73.425 4.20107 73.5195 4.20283 73.5975 4.19107V3.82422H73.16ZM73.6082 3.82422H74.0457V3.45737C73.9677 3.44561 73.8732 3.44737 73.7787 3.44912C73.7206 3.4502 73.6625 3.45128 73.6082 3.44922V3.82422ZM73.1595 3.44951C73.2135 3.44755 73.2711 3.44858 73.3288 3.44961H73.3288C73.4236 3.4513 73.5184 3.45299 73.597 3.44136V3.07451H73.1595V3.44951ZM73.8769 4.57461H73.8769C73.7821 4.5763 73.6873 4.57799 73.6087 4.56636V4.19951H74.0462V4.57451C73.9922 4.57255 73.9346 4.57358 73.8769 4.57461ZM73.8769 2.32461H73.8769C73.7821 2.3263 73.6873 2.32799 73.6087 2.31636V1.94951H74.0462V2.32451C73.9922 2.32255 73.9345 2.32358 73.8769 2.32461Z" fill="white"/>
<path fill-rule="evenodd" clip-rule="evenodd" d="M74.0556 84.5234H74.503V84.1484H74.0456V84.5234C73.9914 84.5214 73.9333 84.5225 73.8752 84.5235H73.8752H73.8752C73.7807 84.5253 73.6862 84.527 73.6082 84.5153V84.1484H73.1508C73.1484 84.1948 73.1496 84.2441 73.1509 84.2935V84.2935V84.2935C73.153 84.3746 73.155 84.4557 73.1408 84.5234H72.7033V84.8984H73.1508V85.2734H72.7026V85.6484H73.1501V86.0234C73.0808 86.0239 73.0006 86.0236 72.9236 86.0233H72.9236H72.9236C72.8403 86.0231 72.7607 86.0228 72.7026 86.0234V86.3984H73.1509C73.1485 86.4448 73.1497 86.4941 73.151 86.5435C73.153 86.6246 73.1551 86.7057 73.1409 86.7734H72.7034V87.1484H73.1509V87.5234H72.7026V87.8984H73.1501V88.2734C73.0809 88.2739 73.0007 88.2736 72.9238 88.2733H72.9237H72.9236H72.9236H72.9235H72.9234H72.9234C72.8401 88.2731 72.7606 88.2728 72.7026 88.2734V88.6484H73.16V88.2816C73.238 88.2698 73.3325 88.2716 73.427 88.2733C73.4851 88.2744 73.5432 88.2755 73.5975 88.2734V88.6484H74.0549V88.2734H74.5023V87.8984H74.0648C74.0506 87.8307 74.0527 87.7496 74.0548 87.6685C74.056 87.6191 74.0573 87.5698 74.0549 87.5234H74.5031V87.1484C74.4451 87.1478 74.3655 87.1481 74.2822 87.1483H74.2822H74.2822H74.2821C74.2051 87.1486 74.1249 87.1489 74.0557 87.1484V86.7734H74.5031V86.3984H74.0549V86.0234H74.5023V85.6484H74.0648C74.0506 85.5807 74.0527 85.4996 74.0548 85.4185V85.4185C74.056 85.3691 74.0573 85.3198 74.0549 85.2734H74.503V84.8984C74.445 84.8978 74.3654 84.8981 74.2821 84.8983H74.2821H74.2821H74.282H74.282C74.205 84.8986 74.1248 84.8989 74.0556 84.8984V84.5234ZM74.0456 85.2734V84.9066C73.9676 84.8948 73.8731 84.8966 73.7787 84.8983C73.7205 84.8994 73.6624 84.9005 73.6082 84.8984V85.2734H74.0456ZM73.5975 85.2734H73.16V85.6484C73.2143 85.6464 73.2724 85.6475 73.3305 85.6485C73.425 85.6503 73.5195 85.652 73.5975 85.6403V85.2734ZM74.0457 86.3984H73.6082V86.7653C73.6862 86.777 73.7807 86.7753 73.8752 86.7735C73.9334 86.7725 73.9915 86.7714 74.0457 86.7734V86.3984ZM73.5975 86.3984V86.0234C73.5432 86.0255 73.4851 86.0244 73.427 86.0233C73.3325 86.0216 73.238 86.0198 73.16 86.0316V86.3984H73.5975ZM73.3287 84.8988H73.3287H73.3287C73.2711 84.8978 73.2134 84.8968 73.1595 84.8987V84.5237H73.5969V84.8906C73.5183 84.9022 73.4235 84.9005 73.3287 84.8988H73.3287H73.3287ZM73.16 87.5234V87.8984C73.2143 87.8964 73.2724 87.8975 73.3305 87.8985C73.425 87.9003 73.5195 87.902 73.5975 87.8903V87.5234H73.16ZM73.6082 87.5234H74.0457V87.1566C73.9677 87.1448 73.8732 87.1466 73.7787 87.1483C73.7206 87.1494 73.6625 87.1505 73.6082 87.1484V87.5234ZM73.1595 87.1487C73.2135 87.1468 73.2711 87.1478 73.3288 87.1488H73.3288C73.4236 87.1505 73.5184 87.1522 73.597 87.1406V86.7737H73.1595V87.1487ZM73.8769 88.2738H73.8769C73.7821 88.2755 73.6873 88.2772 73.6087 88.2656V87.8987H74.0462V88.2737C73.9922 88.2718 73.9346 88.2728 73.8769 88.2738ZM73.8769 86.0238H73.8769C73.7821 86.0255 73.6873 86.0272 73.6087 86.0156V85.6487H74.0462V86.0237C73.9922 86.0218 73.9345 86.0228 73.8769 86.0238Z" fill="white"/>
<path d="M76.8475 4.38507H77.252C79.1399 4.38507 80.6703 5.91548 80.6703 7.80334V77.4506V81.2962C80.6703 83.184 79.1399 84.7144 77.252 84.7144H76.8475C76.5989 84.7144 76.3975 84.9159 76.3975 85.1644V87.6827C76.3975 87.9312 76.5989 88.1327 76.8475 88.1327H77.252C81.0277 88.1327 84.0886 85.0719 84.0886 81.2962V77.4506V7.80334C84.0886 4.02762 81.0277 0.966797 77.252 0.966797H76.8475C76.5989 0.966797 76.3975 1.16827 76.3975 1.4168V3.93507C76.3975 4.1836 76.5989 4.38507 76.8475 4.38507Z" fill="#1D6BF5"/>
<path d="M79.1631 4.01562L78.104 2.95651L79.1631 1.8974L79.1631 4.01562Z" fill="#D9D9D9"/>
<path d="M80.0967 4.85156V3.35375L81.5945 3.35375L80.0967 4.85156Z" fill="#D9D9D9"/>
<path d="M81.1455 6.29883L81.5332 4.85205L82.9799 5.23971L81.1455 6.29883Z" fill="#D9D9D9"/>
<path d="M79.7598 84.6016L81.0439 85.3726L80.2728 86.6567L79.7598 84.6016Z" fill="#D9D9D9"/>
<path d="M78.2021 85.1973L79.2613 86.2564L78.2021 87.3155L78.2021 85.1973Z" fill="#D9D9D9"/>
<path d="M81.2637 82.8301L82.3791 81.7147L83.4945 82.8301L81.2637 82.8301Z" fill="white"/>
<path d="M81.2637 81.0498L82.3791 79.9344L83.4945 81.0498L81.2637 81.0498Z" fill="white"/>
<path d="M81.2637 79.2686L82.3791 78.1531L83.4945 79.2686L81.2637 79.2686Z" fill="white"/>
<path d="M81.2637 77.4883L82.3791 76.3729L83.4945 77.4883L81.2637 77.4883Z" fill="white"/>
<path d="M81.2637 75.707L82.3791 74.5916L83.4945 75.707L81.2637 75.707Z" fill="white"/>
<path d="M81.2637 73.9258L82.3791 72.8104L83.4945 73.9258L81.2637 73.9258Z" fill="white"/>
<path d="M81.2637 72.1455L82.3791 71.0301L83.4945 72.1455L81.2637 72.1455Z" fill="white"/>
<path d="M81.2637 70.3643L82.3791 69.2488L83.4945 70.3643L81.2637 70.3643Z" fill="white"/>
<path d="M81.2637 68.584L82.3791 67.4686L83.4945 68.584L81.2637 68.584Z" fill="white"/>
<path d="M81.2637 66.8027L82.3791 65.6873L83.4945 66.8027L81.2637 66.8027Z" fill="white"/>
<path d="M81.2637 65.0215L82.3791 63.9061L83.4945 65.0215L81.2637 65.0215Z" fill="white"/>
<path d="M81.2637 63.2412L82.3791 62.1258L83.4945 63.2412L81.2637 63.2412Z" fill="white"/>
<path d="M81.2637 61.46L82.3791 60.3445L83.4945 61.46L81.2637 61.46Z" fill="white"/>
<path d="M81.2637 59.6797L82.3791 58.5643L83.4945 59.6797L81.2637 59.6797Z" fill="white"/>
<path d="M81.2637 57.8984L82.3791 56.783L83.4945 57.8984L81.2637 57.8984Z" fill="white"/>
<path d="M81.2637 56.1182L82.3791 55.0027L83.4945 56.1182L81.2637 56.1182Z" fill="white"/>
<path d="M81.2637 54.3369L82.3791 53.2215L83.4945 54.3369L81.2637 54.3369Z" fill="white"/>
<path d="M81.2637 52.5557L82.3791 51.4402L83.4945 52.5557L81.2637 52.5557Z" fill="white"/>
<path d="M81.2637 50.7754L82.3791 49.66L83.4945 50.7754L81.2637 50.7754Z" fill="white"/>
<path d="M81.2637 48.9941L82.3791 47.8787L83.4945 48.9941L81.2637 48.9941Z" fill="white"/>
<path d="M81.2637 47.2139L82.3791 46.0984L83.4945 47.2139L81.2637 47.2139Z" fill="white"/>
<path d="M81.2637 45.4326L82.3791 44.3172L83.4945 45.4326L81.2637 45.4326Z" fill="white"/>
<path d="M81.2637 43.6514L82.3791 42.5359L83.4945 43.6514L81.2637 43.6514Z" fill="white"/>
<path d="M81.2637 41.8711L82.3791 40.7557L83.4945 41.8711L81.2637 41.8711Z" fill="white"/>
<path d="M81.2637 40.0898L82.3791 38.9744L83.4945 40.0898L81.2637 40.0898Z" fill="white"/>
<path d="M81.2637 38.3096L82.3791 37.1941L83.4945 38.3096L81.2637 38.3096Z" fill="white"/>
<path d="M81.2637 36.5283L82.3791 35.4129L83.4945 36.5283L81.2637 36.5283Z" fill="white"/>
<path d="M81.2637 34.748L82.3791 33.6326L83.4945 34.748L81.2637 34.748Z" fill="white"/>
<path d="M81.2637 32.9668L82.3791 31.8514L83.4945 32.9668L81.2637 32.9668Z" fill="white"/>
<path d="M81.2637 31.1855L82.3791 30.0701L83.4945 31.1855L81.2637 31.1855Z" fill="white"/>
<path d="M81.2637 29.4053L82.3791 28.2899L83.4945 29.4053L81.2637 29.4053Z" fill="white"/>
<path d="M81.2637 27.624L82.3791 26.5086L83.4945 27.624L81.2637 27.624Z" fill="white"/>
<path d="M81.2637 25.8438L82.3791 24.7283L83.4945 25.8437L81.2637 25.8438Z" fill="white"/>
<path d="M81.2637 24.0625L82.3791 22.9471L83.4945 24.0625L81.2637 24.0625Z" fill="white"/>
<path d="M81.2637 22.2812L82.3791 21.1658L83.4945 22.2812L81.2637 22.2812Z" fill="white"/>
<path d="M81.2637 20.501L82.3791 19.3856L83.4945 20.501L81.2637 20.501Z" fill="white"/>
<path d="M81.2637 18.7197L82.3791 17.6043L83.4945 18.7197L81.2637 18.7197Z" fill="white"/>
<path d="M81.2637 16.9395L82.3791 15.824L83.4945 16.9395L81.2637 16.9395Z" fill="white"/>
<path d="M81.2637 15.1582L82.3791 14.0428L83.4945 15.1582L81.2637 15.1582Z" fill="white"/>
<path d="M81.2637 13.3779L82.3791 12.2625L83.4945 13.3779L81.2637 13.3779Z" fill="white"/>
<path d="M81.2637 11.5967L82.3791 10.4813L83.4945 11.5967L81.2637 11.5967Z" fill="white"/>
<path d="M81.2637 9.81543L82.3791 8.70001L83.4945 9.81543L81.2637 9.81543Z" fill="white"/>
<path d="M81.3203 7.82031L82.3794 6.7612L83.4385 7.82031H81.3203Z" fill="#D9D9D9"/>
<path d="M80.7061 83.8281L82.1945 83.6606L82.362 85.1491L80.7061 83.8281Z" fill="#D9D9D9"/>
<path d="M79.0291 6.88195H78.3595V8.99875H77.8591V6.88195H77.1895V6.43555H79.0291V6.88195Z" fill="white"/>
<path d="M76.9648 8.99875H76.3852L75.8848 7.97635H75.5248V8.99875H75.0244V6.43555H76.0288C76.1584 6.43555 76.2748 6.45715 76.378 6.50035C76.4812 6.54115 76.5688 6.59755 76.6408 6.66955C76.7128 6.73915 76.7668 6.82195 76.8028 6.91795C76.8412 7.01155 76.8604 7.11235 76.8604 7.22035C76.8604 7.31155 76.8472 7.39315 76.8208 7.46515C76.7968 7.53715 76.7632 7.60195 76.72 7.65955C76.6768 7.71475 76.6264 7.76275 76.5688 7.80355C76.5136 7.84195 76.4548 7.87195 76.3924 7.89355L76.9648 8.99875ZM76.36 7.22035C76.36 7.11955 76.3264 7.03795 76.2592 6.97555C76.1944 6.91315 76.1068 6.88195 75.9964 6.88195H75.5248V7.55875H75.9964C76.1068 7.55875 76.1944 7.52755 76.2592 7.46515C76.3264 7.40275 76.36 7.32115 76.36 7.22035Z" fill="white"/>
<path d="M74.709 8.99875H74.187L74.0358 8.54515H73.125L72.9702 8.99875H72.4482L73.3806 6.43555H73.773L74.709 8.99875ZM73.9026 8.12395L73.5894 7.19155L73.2654 8.12395H73.9026Z" fill="white"/>
<path d="M72.5359 6.88195H71.8663V8.99875H71.3659V6.88195H70.6963V6.43555H72.5359V6.88195Z" fill="white"/>
<path d="M70.4157 8.24286C70.4157 8.36766 70.3905 8.47806 70.3401 8.57406C70.2921 8.67006 70.2249 8.75166 70.1385 8.81886C70.0545 8.88366 69.9549 8.93406 69.8397 8.97006C69.7245 9.00366 69.5997 9.02046 69.4653 9.02046C69.2709 9.02046 69.0969 8.99646 68.9433 8.94846C68.7921 8.89806 68.6541 8.80926 68.5293 8.68206L68.8533 8.35806C68.9349 8.43966 69.0285 8.49606 69.1341 8.52726C69.2397 8.55846 69.3525 8.57406 69.4725 8.57406C69.6213 8.57406 69.7341 8.54766 69.8109 8.49486C69.8877 8.43966 69.9261 8.36046 69.9261 8.25726C69.9261 8.16366 69.8997 8.09166 69.8469 8.04126C69.8205 8.01726 69.7905 7.99926 69.7569 7.98726C69.7257 7.97286 69.6801 7.96086 69.6201 7.95126L69.3105 7.90806C69.0921 7.87686 68.9265 7.80606 68.8137 7.69566C68.6913 7.57326 68.6301 7.40526 68.6301 7.19166C68.6301 7.07646 68.6505 6.97206 68.6913 6.87846C68.7321 6.78246 68.7909 6.70086 68.8677 6.63366C68.9445 6.56406 69.0381 6.51006 69.1485 6.47166C69.2589 6.43326 69.3837 6.41406 69.5229 6.41406C69.7005 6.41406 69.8553 6.43686 69.9873 6.48246C70.1193 6.52806 70.2405 6.60486 70.3509 6.71286L70.0341 7.02606C69.9525 6.94926 69.8649 6.90126 69.7713 6.88206C69.6801 6.86046 69.5925 6.84966 69.5085 6.84966C69.3741 6.84966 69.2745 6.88206 69.2097 6.94686C69.1449 7.00926 69.1125 7.08486 69.1125 7.17366C69.1125 7.20726 69.1185 7.23966 69.1305 7.27086C69.1425 7.30206 69.1617 7.33086 69.1881 7.35726C69.2145 7.38126 69.2469 7.40286 69.2853 7.42206C69.3261 7.43886 69.3729 7.45086 69.4257 7.45806L69.7281 7.50126C69.8457 7.51806 69.9429 7.54326 70.0197 7.57686C70.0965 7.60806 70.1625 7.64886 70.2177 7.69926C70.2873 7.76406 70.3377 7.84206 70.3689 7.93326C70.4001 8.02446 70.4157 8.12766 70.4157 8.24286Z" fill="white"/>
<path d="M76.243 80.6067C76.243 80.7027 76.243 80.7987 76.243 80.8947C76.243 80.9883 76.2358 81.0795 76.2214 81.1683C76.207 81.2571 76.1818 81.3423 76.1458 81.4239C76.1098 81.5055 76.0558 81.5823 75.9838 81.6543C75.8998 81.7383 75.799 81.8007 75.6814 81.8415C75.5662 81.8799 75.4414 81.8991 75.307 81.8991H74.3818V79.3359H75.307C75.4414 79.3359 75.5662 79.3563 75.6814 79.3971C75.799 79.4355 75.8998 79.4967 75.9838 79.5807C76.0558 79.6527 76.1098 79.7283 76.1458 79.8075C76.1818 79.8867 76.207 79.9695 76.2214 80.0559C76.2358 80.1423 76.243 80.2323 76.243 80.3259C76.243 80.4171 76.243 80.5107 76.243 80.6067ZM75.7426 80.6067C75.7426 80.5107 75.7414 80.4279 75.739 80.3583C75.7366 80.2863 75.7318 80.2239 75.7246 80.1711C75.7174 80.1183 75.7066 80.0739 75.6922 80.0379C75.6778 80.0019 75.6586 79.9695 75.6346 79.9407C75.5914 79.8879 75.5398 79.8483 75.4798 79.8219C75.4198 79.7955 75.3466 79.7823 75.2602 79.7823H74.8822V81.4527H75.2602C75.3466 81.4527 75.4198 81.4395 75.4798 81.4131C75.5398 81.3867 75.5914 81.3471 75.6346 81.2943C75.6802 81.2367 75.709 81.1563 75.721 81.0531C75.7354 80.9499 75.7426 80.8011 75.7426 80.6067Z" fill="white"/>
<path d="M73.7843 81.8991H73.3379L72.3227 80.3259V81.8991H71.8223V79.3359H72.2687L73.2839 80.9055V79.3359H73.7843V81.8991Z" fill="white"/>
<path d="M71.331 81.8991H69.6426V79.3359H71.331V79.7823H70.143V80.3835H71.1546V80.8299H70.143V81.4527H71.331V81.8991Z" fill="white"/>
<rect x="61.4646" y="59.2039" width="6.12" height="6.12" rx="3.06" fill="#1F6FF8"/>
<rect x="61.4646" y="59.2039" width="6.12" height="6.12" rx="3.06" stroke="white" stroke-width="0.9"/>
<path d="M64.9201 63.7587H64.3351V61.1847L63.6826 61.7517V61.1217L64.3351 60.5547H64.9201V63.7587Z" fill="white"/>
<rect x="41.5457" y="51.2723" width="6.12" height="6.12" rx="3.06" fill="#1F6FF8"/>
<rect x="41.5457" y="51.2723" width="6.12" height="6.12" rx="3.06" stroke="white" stroke-width="0.9"/>
<path d="M45.5248 54.927C45.5248 55.086 45.4978 55.2255 45.4438 55.3455C45.3898 55.4655 45.3163 55.566 45.2233 55.647C45.1303 55.725 45.0223 55.7835 44.8993 55.8225C44.7763 55.8615 44.6458 55.881 44.5078 55.881C44.3758 55.881 44.2483 55.863 44.1253 55.827C44.0053 55.791 43.8973 55.7355 43.8013 55.6605C43.7083 55.5825 43.6333 55.485 43.5763 55.368C43.5193 55.248 43.4893 55.104 43.4863 54.936H44.0713C44.0743 55.008 44.0878 55.071 44.1118 55.125C44.1358 55.176 44.1673 55.2195 44.2063 55.2555C44.2453 55.2885 44.2903 55.314 44.3413 55.332C44.3953 55.347 44.4508 55.3545 44.5078 55.3545C44.6338 55.3545 44.7373 55.317 44.8183 55.242C44.8993 55.164 44.9398 55.053 44.9398 54.909C44.9398 54.774 44.9008 54.6675 44.8228 54.5895C44.7448 54.5085 44.6338 54.468 44.4898 54.468H44.4043V53.9595H44.4898C44.6338 53.9595 44.7373 53.922 44.8003 53.847C44.8633 53.769 44.8948 53.673 44.8948 53.559C44.8948 53.424 44.8558 53.322 44.7778 53.253C44.6998 53.184 44.6083 53.1495 44.5033 53.1495C44.3923 53.1495 44.2993 53.184 44.2243 53.253C44.1523 53.319 44.1133 53.4135 44.1073 53.5365H43.5223C43.5253 53.3925 43.5523 53.265 43.6033 53.154C43.6573 53.04 43.7278 52.944 43.8148 52.866C43.9018 52.788 44.0038 52.728 44.1208 52.686C44.2408 52.644 44.3683 52.623 44.5033 52.623C44.6443 52.623 44.7748 52.6455 44.8948 52.6905C45.0148 52.7355 45.1183 52.7985 45.2053 52.8795C45.2923 52.9605 45.3598 53.058 45.4078 53.172C45.4558 53.283 45.4798 53.406 45.4798 53.541C45.4798 53.715 45.4438 53.8545 45.3718 53.9595C45.3028 54.0615 45.2158 54.141 45.1108 54.198C45.2248 54.258 45.3223 54.3465 45.4033 54.4635C45.4843 54.5775 45.5248 54.732 45.5248 54.927Z" fill="white"/>
<g filter="url(#filter0_d_16897_30282)">
<rect x="33.3252" y="55.2305" width="7.02" height="7.02" rx="3.51" fill="#1F6FF8" shape-rendering="crispEdges"/>
<rect x="33.7752" y="55.6805" width="6.12" height="6.12" rx="3.06" stroke="white" stroke-width="0.9" shape-rendering="crispEdges"/>
<path d="M37.9819 59.7808H37.6894V60.2352H37.1269V59.7808H35.8174V59.2273L36.9154 57.0312H37.5544L36.4564 59.2273H37.1269V58.6288H37.6894V59.2273H37.9819V59.7808Z" fill="white"/>
</g>
<rect x="23.8055" y="76.2801" width="6.12" height="6.12" rx="3.06" fill="#1F6FF8"/>
<rect x="23.8055" y="76.2801" width="6.12" height="6.12" rx="3.06" stroke="white" stroke-width="0.9"/>
<path d="M27.7829 79.7549C27.7829 79.9349 27.7649 80.0924 27.7289 80.2274C27.6929 80.3594 27.6164 80.4839 27.4994 80.6009C27.4274 80.6729 27.3329 80.7344 27.2159 80.7854C27.1019 80.8364 26.9609 80.8619 26.7929 80.8619C26.6249 80.8619 26.4809 80.8364 26.3609 80.7854C26.2409 80.7344 26.1464 80.6744 26.0774 80.6054C25.9784 80.5064 25.9124 80.3999 25.8794 80.2859C25.8464 80.1719 25.8254 80.0564 25.8164 79.9394H26.4014C26.4164 80.0654 26.4539 80.1629 26.5139 80.2319C26.5769 80.3009 26.6699 80.3354 26.7929 80.3354C26.9099 80.3354 27.0029 80.3009 27.0719 80.2319C27.1229 80.1809 27.1559 80.1149 27.1709 80.0339C27.1889 79.9499 27.1979 79.8569 27.1979 79.7549C27.1979 79.5689 27.1679 79.4264 27.1079 79.3274C27.0509 79.2284 26.9504 79.1789 26.8064 79.1789C26.6864 79.1789 26.5964 79.2074 26.5364 79.2644C26.4794 79.3184 26.4404 79.3769 26.4194 79.4399H25.8839V77.6309H27.7109V78.1574H26.4149V78.8459C26.4569 78.8039 26.5199 78.7664 26.6039 78.7334C26.6909 78.7004 26.7884 78.6839 26.8964 78.6839C27.0314 78.6839 27.1484 78.7034 27.2474 78.7424C27.3464 78.7814 27.4289 78.8339 27.4949 78.8999C27.6209 79.0259 27.7004 79.1624 27.7334 79.3094C27.7664 79.4534 27.7829 79.6019 27.7829 79.7549Z" fill="white"/>
<rect x="15.7059" y="21.1668" width="6.12" height="6.12" rx="3.06" fill="#1F6FF8"/>
<rect x="15.7059" y="21.1668" width="6.12" height="6.12" rx="3.06" stroke="white" stroke-width="0.9"/>
<path d="M19.6731 25.7447H17.7246V25.2182L18.9216 23.8277C18.9816 23.7587 19.0236 23.6957 19.0476 23.6387C19.0746 23.5817 19.0881 23.5157 19.0881 23.4407C19.0881 23.3207 19.0551 23.2247 18.9891 23.1527C18.9231 23.0777 18.8271 23.0402 18.7011 23.0402C18.6531 23.0402 18.6051 23.0477 18.5571 23.0627C18.5121 23.0747 18.4701 23.0972 18.4311 23.1302C18.3951 23.1602 18.3651 23.2022 18.3411 23.2562C18.3201 23.3072 18.3096 23.3717 18.3096 23.4497H17.7246C17.7246 23.3027 17.7486 23.1722 17.7966 23.0582C17.8476 22.9412 17.9166 22.8422 18.0036 22.7612C18.0936 22.6802 18.1971 22.6187 18.3141 22.5767C18.4341 22.5347 18.5631 22.5137 18.7011 22.5137C18.8421 22.5137 18.9726 22.5362 19.0926 22.5812C19.2126 22.6232 19.3146 22.6847 19.3986 22.7657C19.4856 22.8437 19.5531 22.9412 19.6011 23.0582C19.6491 23.1722 19.6731 23.3012 19.6731 23.4452C19.6731 23.5232 19.6656 23.5937 19.6506 23.6567C19.6356 23.7167 19.6131 23.7752 19.5831 23.8322C19.5561 23.8892 19.5201 23.9462 19.4751 24.0032C19.4331 24.0572 19.3851 24.1157 19.3311 24.1787L18.4356 25.2182H19.6731V25.7447Z" fill="white"/>
<rect x="41.8338" y="82.6141" width="6.12" height="6.12" rx="3.06" fill="#1F6FF8"/>
<rect x="41.8338" y="82.6141" width="6.12" height="6.12" rx="3.06" stroke="white" stroke-width="0.9"/>
<path d="M45.7998 86.1968C45.7998 86.3558 45.7743 86.4968 45.7233 86.6198C45.6723 86.7428 45.6018 86.8478 45.5118 86.9348C45.4218 87.0188 45.3153 87.0833 45.1923 87.1283C45.0723 87.1733 44.9418 87.1958 44.8008 87.1958C44.6598 87.1958 44.5278 87.1748 44.4048 87.1328C44.2848 87.0878 44.1798 87.0233 44.0898 86.9393C43.9998 86.8553 43.9293 86.7518 43.8783 86.6288C43.8273 86.5058 43.8018 86.3648 43.8018 86.2058C43.8018 86.0588 43.8288 85.9163 43.8828 85.7783C43.9368 85.6403 43.9998 85.4978 44.0718 85.3508L44.7468 83.9648H45.3858L44.7198 85.2878C44.7588 85.2728 44.7978 85.2623 44.8368 85.2563C44.8788 85.2503 44.9193 85.2473 44.9583 85.2473C45.0663 85.2473 45.1698 85.2698 45.2688 85.3148C45.3708 85.3568 45.4608 85.4183 45.5388 85.4993C45.6198 85.5803 45.6828 85.6808 45.7278 85.8008C45.7758 85.9178 45.7998 86.0498 45.7998 86.1968ZM45.2148 86.2013C45.2148 86.0573 45.1773 85.9433 45.1023 85.8593C45.0273 85.7753 44.9268 85.7333 44.8008 85.7333C44.6808 85.7333 44.5818 85.7738 44.5038 85.8548C44.4258 85.9358 44.3868 86.0513 44.3868 86.2013C44.3868 86.3513 44.4258 86.4668 44.5038 86.5478C44.5818 86.6288 44.6808 86.6693 44.8008 86.6693C44.9208 86.6693 45.0198 86.6288 45.0978 86.5478C45.1758 86.4668 45.2148 86.3513 45.2148 86.2013Z" fill="white"/>
<rect x="63.2645" y="82.6141" width="6.12" height="6.12" rx="3.06" fill="#1F6FF8"/>
<rect x="63.2645" y="82.6141" width="6.12" height="6.12" rx="3.06" stroke="white" stroke-width="0.9"/>
<path d="M67.2787 84.4913L66.2392 87.1688H65.6047L66.6442 84.4913H65.7982V84.9953H65.2402V83.9648H67.2787V84.4913Z" fill="white"/>
<defs>
<filter id="filter0_d_16897_30282" x="29.7252" y="51.6305" width="14.22" height="14.2195" filterUnits="userSpaceOnUse" color-interpolation-filters="sRGB">
<feFlood flood-opacity="0" result="BackgroundImageFix"/>
<feColorMatrix in="SourceAlpha" type="matrix" values="0 0 0 0 0 0 0 0 0 0 0 0 0 0 0 0 0 0 127 0" result="hardAlpha"/>
<feOffset/>
<feGaussianBlur stdDeviation="1.8"/>
<feComposite in2="hardAlpha" operator="out"/>
<feColorMatrix type="matrix" values="0 0 0 0 0.0666667 0 0 0 0 0.0666667 0 0 0 0 0.0862745 0 0 0 0.5 0"/>
<feBlend mode="normal" in2="BackgroundImageFix" result="effect1_dropShadow_16897_30282"/>
<feBlend mode="normal" in="SourceGraphic" in2="effect1_dropShadow_16897_30282" result="shape"/>
</filter>
</defs>
</svg>
