<svg width="14" height="16" viewBox="0 0 14 16" fill="none" xmlns="http://www.w3.org/2000/svg">
<path d="M10.091 5.17015C12.0642 6.33458 13.4001 8.49218 13.4001 10.5198C13.4001 13.4872 10.5356 15.1998 7.0001 15.1998C3.46456 15.1998 0.600098 13.4872 0.600098 10.5198C0.600098 8.49318 1.93627 6.33491 3.90982 5.17016H10.091L10.091 5.17015ZM8.13192 7.23691L6.92435 8.57105L5.71677 7.23691C5.57955 7.08531 5.31425 7.08531 5.17702 7.23691C5.0398 7.38852 5.0398 7.68162 5.17702 7.83323L6.05526 8.80352H5.11299C4.91172 8.80352 4.7745 8.95513 4.7745 9.17749C4.7745 9.39985 4.91172 9.55145 5.11299 9.55145H6.59501V10.3701H5.11299C4.91172 10.3701 4.7745 10.5217 4.7745 10.7441C4.7745 10.9664 4.97576 11.1888 5.17702 11.1888H6.65905V12.3814C6.65905 12.6038 6.79627 12.7554 6.99753 12.7554C7.1988 12.7554 7.33602 12.6038 7.33602 12.3814V11.0473H8.81805C9.01931 11.0473 9.15654 10.8957 9.15654 10.6733C9.15654 10.451 9.01931 10.2994 8.81805 10.2994H7.32687V9.48071H8.8089V9.47059C9.01016 9.47059 9.1474 9.31899 9.1474 9.09663C9.1474 8.87428 9.01016 8.72266 8.8089 8.72266H7.86662L8.67167 7.83323C8.8089 7.68162 8.8089 7.38852 8.67167 7.23691C8.53445 7.08531 8.26915 7.08531 8.13192 7.23691ZM11.0682 1.00998C11.4715 1.50118 11.0396 2.63551 9.7725 4.41295L4.09656 4.41309C3.64086 3.82074 2.22031 1.86748 2.69317 1.11752C3.06682 0.524907 4.4801 0.899235 6.93301 2.24054C9.27351 0.913207 10.6519 0.503035 11.0682 1.00998Z" fill="#1D6BF5"/>
</svg>
