<svg width="28" height="28" viewBox="0 0 28 28" fill="none" xmlns="http://www.w3.org/2000/svg">
<circle cx="14" cy="14" r="13.5" fill="url(#paint0_linear_17332_6246)" stroke="white"/>
<path fill-rule="evenodd" clip-rule="evenodd" d="M21.875 12.25C21.875 16.5992 18.3492 20.125 14 20.125C9.65076 20.125 6.125 16.5992 6.125 12.25C6.125 7.90076 9.65076 4.375 14 4.375C18.3492 4.375 21.875 7.90076 21.875 12.25ZM10.4654 11.7958C10.087 11.7089 9.74117 12.0482 9.88883 12.4072C10.636 14.2238 12.196 15.4736 13.9994 15.4736C15.8029 15.4736 17.363 14.2237 18.1101 12.4069C18.2577 12.0478 17.9118 11.7086 17.5335 11.7955C16.4484 12.0448 15.2536 12.1828 13.9988 12.1828C12.7445 12.1828 11.5502 12.0449 10.4654 11.7958ZM11.5938 10.0625C12.1978 10.0625 12.6875 9.57281 12.6875 8.96875C12.6875 8.36469 12.1978 7.875 11.5938 7.875C10.9897 7.875 10.5 8.36469 10.5 8.96875C10.5 9.57281 10.9897 10.0625 11.5938 10.0625ZM17.5 8.96875C17.5 9.57281 17.0103 10.0625 16.4062 10.0625C15.8022 10.0625 15.3125 9.57281 15.3125 8.96875C15.3125 8.36469 15.8022 7.875 16.4062 7.875C17.0103 7.875 17.5 8.36469 17.5 8.96875ZM15.2868 21.8012C14.9092 21.9829 14.9092 22.5206 15.2868 22.7023L16.7915 23.4263C17.1235 23.586 17.5083 23.3441 17.5083 22.9757V21.5278C17.5083 21.1594 17.1235 20.9175 16.7915 21.0772L15.2868 21.8012ZM12.7113 21.8012C13.0889 21.9829 13.0889 22.5206 12.7113 22.7023L11.2066 23.4263C10.8746 23.586 10.4898 23.3441 10.4898 22.9757V21.5278C10.4898 21.1594 10.8746 20.9175 11.2066 21.0772L12.7113 21.8012Z" fill="white"/>
<defs>
<linearGradient id="paint0_linear_17332_6246" x1="14" y1="7.67127" x2="14" y2="27.0284" gradientUnits="userSpaceOnUse">
<stop stop-color="#70B3FF"/>
<stop offset="1" stop-color="#1D68FF"/>
</linearGradient>
</defs>
</svg>
