<svg width="23" height="18" viewBox="0 0 23 18" fill="none" xmlns="http://www.w3.org/2000/svg">
<path d="M19.3819 2.17845C18.0465 1.99247 16.6708 2.14378 15.3357 2.25026C14.0055 2.35638 12.6165 2.48623 11.2985 2.23399C9.74668 1.93697 8.76493 1.11445 8.04102 0C7.84141 0.436659 7.64184 0.873301 7.44227 1.31C6.13655 4.16671 4.8309 7.0234 3.52522 9.88009L0 17.5931L1.36142 18L4.53394 11.0587C5.12273 11.5667 5.84966 11.9355 6.78284 12.1141C8.10069 12.3662 9.48981 12.2366 10.8199 12.1304C12.155 12.0237 13.5309 11.8725 14.8662 12.0585C16.5821 12.2975 17.6908 13.1285 18.4842 14.3502C19.9897 11.0569 21.4948 7.76354 23 4.47013C22.2064 3.24838 21.098 2.41751 19.3819 2.17845ZM19.5492 8.04208C18.8779 7.58396 18.1572 7.27761 17.2883 7.14254C16.9984 7.77656 16.7086 8.41062 16.4188 9.04468C17.2878 9.17982 18.0084 9.48619 18.6798 9.94426L17.8825 11.6886C17.2112 11.2305 16.4904 10.9239 15.6215 10.7891C15.8872 10.2075 16.153 9.62609 16.4188 9.04468C15.534 8.9293 14.6701 8.92995 13.7773 8.97412C13.5116 9.55558 13.2458 10.1371 12.98 10.7185C12.0563 10.7788 11.1357 10.8645 10.212 10.9247C10.4777 10.3432 10.7435 9.76177 11.0092 9.18043C10.1165 9.22466 9.25251 9.22539 8.36771 9.10993C8.10197 9.69137 7.83621 10.2728 7.57044 10.8542C6.70158 10.7193 5.98058 10.4128 5.30943 9.95459L6.10666 8.21035C6.77808 8.6685 7.49872 8.9749 8.36771 9.10993C8.65746 8.47587 8.94738 7.84176 9.23713 7.2077C8.36818 7.07296 7.64743 6.76612 6.97608 6.3082L7.84554 4.4059C8.51696 4.86419 9.2376 5.17024 10.1065 5.30553L10.9038 3.56127C11.7886 3.67665 12.6527 3.67598 13.5453 3.63168C13.2796 4.21311 13.0138 4.79457 12.7481 5.376C13.6718 5.31566 14.5924 5.23005 15.5161 5.16975C15.7818 4.58835 16.0477 4.00687 16.3134 3.42541C17.2062 3.3812 18.07 3.38049 18.9549 3.49593L18.1576 5.24031C19.0266 5.37543 19.7471 5.68169 20.4186 6.13982C20.1289 6.77391 19.8392 7.40806 19.5492 8.04208ZM11.8786 7.27821C11.5889 7.9123 11.2991 8.54632 11.0092 9.18043C11.933 9.12005 12.8536 9.03442 13.7773 8.97412L14.6467 7.07198C13.7229 7.13232 12.8024 7.21797 11.8786 7.27821ZM11.8786 7.27821C12.1685 6.64419 12.4583 6.01 12.7481 5.376C11.8551 5.42009 10.9916 5.42084 10.1065 5.30553L9.23713 7.2077C10.122 7.32321 10.9858 7.32256 11.8786 7.27821ZM15.5161 5.16975C15.2263 5.80378 14.9365 6.43789 14.6467 7.07198C15.5395 7.02789 16.4034 7.02716 17.2883 7.14254C17.578 6.50852 17.8678 5.87435 18.1576 5.24031C17.2728 5.1249 16.409 5.12544 15.5161 5.16975Z" fill="#626F86"/>
</svg>
