<svg width="20" height="20" viewBox="0 0 20 20" fill="none" xmlns="http://www.w3.org/2000/svg">
<path d="M10 4V16C7.55 16 5.72947 12.9464 5.72947 12.9464H3.7C3.3134 12.9464 3 12.6479 3 12.2797V7.67027C3 7.30207 3.3134 7.0036 3.7 7.0036H5.72947C5.72947 7.0036 7.55 4 10 4Z" stroke="#8590A2" stroke-width="1.25" stroke-linejoin="round"/>
<path d="M13 7C13.1558 7.1855 13.297 7.39323 13.421 7.6196C13.7847 8.28347 14 9.10743 14 10C14 10.8848 13.7884 11.7022 13.4305 12.3631C13.3042 12.5962 13.1598 12.8098 13 13" stroke="#8590A2" stroke-width="1.25" stroke-linecap="round" stroke-linejoin="round"/>
<path d="M14 16C15.7967 14.7755 17 12.5338 17 9.9711C17 7.44826 15.8338 5.23641 14.0833 4" stroke="#8590A2" stroke-width="1.25" stroke-linecap="round"/>
</svg>
