<svg width="82" height="32" viewBox="0 0 82 32" fill="none" xmlns="http://www.w3.org/2000/svg">
<path fill-rule="evenodd" clip-rule="evenodd" d="M1.63643 1.5539C0.980405 1.14352 0.129094 1.61514 0.129094 2.38894V6.91254C0.129094 7.45652 0.570079 7.89751 1.11406 7.89751H21.5338C22.0778 7.89751 22.5187 7.45652 22.5187 6.91254V2.38894C22.5187 1.61514 21.6674 1.14352 21.0114 1.5539L17.5066 3.74636C17.1553 3.96614 16.704 3.9425 16.3775 3.68724L11.9306 0.210028C11.5742 -0.068707 11.0737 -0.0687073 10.7172 0.210027L6.27033 3.68724C5.94388 3.9425 5.49257 3.96614 5.14124 3.74636L1.63643 1.5539ZM2.69694 27.8825C3.35142 28.2041 4.11621 27.7277 4.11621 26.9985V10.8597C4.11621 10.3158 3.67523 9.87478 3.13125 9.87478H1.02905C0.4607 9.87478 0 10.3275 0 10.8859V25.9327C0 26.3157 0.220206 26.6658 0.568856 26.8371L2.69694 27.8825ZM11.7879 18.7886C11.4897 18.4144 11.5036 17.88 11.8208 17.5218L18.299 10.2067C18.486 9.99564 18.7544 9.87478 19.0364 9.87478H21.6101C22.1785 9.87478 22.6392 10.3275 22.6392 10.8859V25.9327C22.6392 26.3157 22.419 26.6658 22.0703 26.8371L20.0002 27.8541C19.585 28.058 19.0838 27.9456 18.7956 27.5838L11.7879 18.7886ZM8.38878 21.7859C8.77607 21.2954 9.51628 21.285 9.91725 21.7643L15.6594 28.6283C16.0692 29.1183 15.9115 29.8627 15.3382 30.1444L11.7798 31.8925C11.4901 32.0348 11.1491 32.0348 10.8594 31.8925L7.63998 30.3109C7.30289 30.1453 7.08931 29.8024 7.08931 29.4269V23.7734C7.08931 23.5519 7.16399 23.3368 7.30128 23.1629L8.38878 21.7859ZM7.08931 16.4618C7.08931 17.3805 8.23591 17.799 8.82769 17.0963L13.5453 11.4942C14.0847 10.8536 13.6293 9.87478 12.7919 9.87478H8.07428C7.5303 9.87478 7.08931 10.3158 7.08931 10.8597V16.4618Z" fill="#1D6BF5"/>
<path fill-rule="evenodd" clip-rule="evenodd" d="M59.1927 5.24414L59.0406 5.94779H62.4283V5.24414H64.6683V5.94779H67.7241V7.58964H64.6683V8.00355H67.7241V9.6454H64.6683V10.0731H67.7241V11.7012H64.6683V12.1427H67.7241V13.7845H62.9261V14.2536H68.0145V16.2128H67.0881L67.655 17.8409H65.2491L64.6821 16.2128H62.9261V17.8409H60.6722V16.2128H58.9023L58.3492 17.8409H55.9571L56.5102 16.2128H55.2795V14.2536H60.6722V13.7845H56.3996V9.21769H55.5699V6.92738H56.524L56.8835 5.24414H59.1927ZM58.4875 12.1427H62.4283V11.7012H58.4875V12.1427ZM58.4875 10.0731H62.4283V9.6454H58.4875V10.0731ZM58.5981 8.00355H62.4283V7.58964H58.6949L58.5981 8.00355ZM81.6071 5.43739V17.8823H69.2316V5.43739H81.6071ZM71.4855 15.7852H79.3532V7.52075H71.4855V15.7852ZM78.1226 8.14162V8.88666H78.8416V10.6803H78.1226V15.1643H75.4954V13.3569H76.1591V10.6803H75.3848L74.5966 15.1781H72.6469L73.4351 10.6803H72.4534V8.88666H76.1591V8.14162H78.1226ZM47.7583 6.01658V5.36812H45.5044V6.01658H41.8817V7.8102H45.5044V8.92776H41.4668V10.7214H44.8476L43.2644 11.3492L41.4668 11.8665V13.6464L43.1399 13.129V17.8269H53.704V11.6734H47.2052L49.4141 10.7214H54.188V8.92776H51.7909L52.9712 8.10044L54.0428 7.30661L52.9712 5.9269L51.0414 7.34872L50.7865 7.51409V6.01658H47.7583ZM50.33 7.8102H47.7583V8.92776H48.6071L50.33 7.8102ZM51.464 16.1022H45.3938V15.5504H51.464V16.1022ZM51.464 13.9499H45.3938V13.4256H51.464V13.9499ZM35.1197 5.27209V5.78258H39.6689V11.7843H28.3305V5.78258H32.8797V5.27209H35.1197ZM40.2635 12.2534V13.7987H35.1197V14.2954H40.1252V15.8406H35.1197V16.3373H40.3603V17.8688H27.6392V16.3373H32.8797V15.8406H27.8742V14.2954H32.8797V13.7987H27.736V12.2534H40.2635ZM30.5844 10.0873H37.4151V9.60436H30.5844V10.0873ZM30.5844 7.94872H37.4151V7.46582H30.5844V7.94872ZM81.6572 24.569V21.3198L81.0488 20.7127H77.9308V26.7558H79.0715V25.176H81.0488L81.6572 24.569ZM79.0715 24.1137V21.7751H80.5165V24.1137H79.0715ZM73.0425 20.7123V25.693H74.4874V20.7123H75.6282V26.1483L75.0198 26.7554H72.5101L71.9017 26.1483V20.7123H73.0425ZM69.0041 20.7123H66.4945L65.8861 21.3194V26.1483L66.4945 26.7554H69.0041L69.6125 26.1483V21.3194L69.0041 20.7123ZM67.0268 25.693V21.7747H68.4718V25.693H67.0268ZM61.1209 26.7484H59.994V20.795H63.0637L63.6721 21.402V23.851L63.5061 24.0166L63.3679 24.1545C63.3218 24.1959 63.2734 24.2419 63.2227 24.2925L63.0637 24.4512H62.9323L63.755 26.7484H62.6004L61.7777 24.4512H61.1209V26.7484ZM62.5451 23.4026V21.8504H61.1209V23.4026H62.5451ZM53.902 26.1483L54.5104 26.7554H57.02L57.6284 26.1483V23.5821H55.6719V24.6445H56.4877V25.693H55.0427V21.7747H56.4877V22.8095H57.6284V21.3194L57.02 20.7123H54.5104L53.902 21.3194V26.1483ZM44.7013 26.7558L44.0929 26.1487V21.3198L44.7013 20.7127H47.2109L47.8193 21.3198V22.8099H46.6786V21.7751H45.2336V25.6934H46.6786V24.6449H45.8628V23.5825H47.8193V26.1487L47.2109 26.7558H44.7013ZM40.6587 20.7123V24.4927L38.7575 20.7123H37.6167V26.7554H38.7575V22.9819L40.6587 26.7554H41.7995V20.7123H40.6587ZM35.2309 26.7558H34.0901V20.7127H35.2309V26.7558ZM30.26 20.7123L29.057 22.8026V20.7123H27.9162V26.7554H29.057V24.5065L30.4052 26.7554H31.7948L29.7899 23.6649L31.6358 20.7123H30.26Z" fill="#1D6BF5"/>
</svg>
