<svg width="28" height="28" viewBox="0 0 28 28" fill="none" xmlns="http://www.w3.org/2000/svg">
<circle cx="14" cy="14" r="13.5" fill="#C6C6C6" stroke="white"/>
<path d="M20.364 14.6332C20.364 18.1477 17.5149 20.9968 14.0004 20.9968C10.4858 20.9968 7.63672 18.1477 7.63672 14.6332C7.63672 11.1186 10.4858 8.26953 14.0004 8.26953C17.5149 8.26953 20.364 11.1186 20.364 14.6332Z" fill="white"/>
<rect x="6.36328" y="10.1836" width="15.2727" height="1.27273" rx="0.636364" fill="#3C3C3C"/>
<path d="M11.1225 5.3307C11.3144 4.8394 11.8549 4.58163 12.3575 4.74172L13.9993 5.26472L15.6411 4.74172C16.1437 4.58163 16.6842 4.8394 16.8761 5.3307L18.772 10.1843H9.22656L11.1225 5.3307Z" fill="#3C3C3C"/>
<circle cx="16.7296" cy="15.1593" r="2.11636" fill="#3C3C3C"/>
<circle cx="11.257" cy="15.1593" r="2.11636" fill="#3C3C3C"/>
<path fill-rule="evenodd" clip-rule="evenodd" d="M13.8329 15.134C13.5379 15.1975 13.2955 15.4019 13.1669 15.5734L12.7539 15.2637C12.935 15.0222 13.2759 14.7259 13.7242 14.6294C14.1931 14.5285 14.7312 14.6564 15.2592 15.1844L14.8942 15.5494C14.4725 15.1276 14.1073 15.075 13.8329 15.134Z" fill="#3C3C3C"/>
</svg>
