<svg width="168" height="136" viewBox="0 0 168 136" fill="none" xmlns="http://www.w3.org/2000/svg">
<path opacity="0.9" d="M0 0H162C165.314 0 168 2.68629 168 6V130C168 133.314 165.314 136 162 136H0V0Z" fill="url(#paint0_linear_16897_29226)"/>
<path opacity="0.5" d="M121.257 9.45751H122.305L121.504 13.9955H123.92L123.762 14.8937H120.298L121.257 9.45751ZM126.271 10.3557L126.034 11.7029H128.13L127.971 12.601H125.875L125.629 13.9955H128.085L127.927 14.8937H124.423L125.382 9.45751H128.886L128.727 10.3557H126.271ZM133.767 9.45751L132.809 14.8937H131.761L130.328 11.498L129.729 14.8937H128.681L129.639 9.45751H130.687L132.119 12.861L132.719 9.45751H133.767ZM134.05 12.7901L134.269 11.5453C134.524 10.1035 135.324 9.37873 136.676 9.37873C137.276 9.37873 137.728 9.5363 138.032 9.85144C138.329 10.1666 138.438 10.592 138.34 11.1435L138.331 11.1987H137.283L137.292 11.1435C137.335 10.8993 137.284 10.6944 137.153 10.529C137.02 10.3714 136.804 10.2848 136.508 10.2848C136.172 10.2848 135.906 10.3872 135.718 10.592C135.529 10.7969 135.398 11.1356 135.316 11.6005L135.109 12.7743C135.03 13.2234 135.053 13.5464 135.178 13.7434C135.303 13.9404 135.543 14.0349 135.887 14.0349C136.207 14.0349 136.452 13.9561 136.626 13.7907C136.797 13.6331 136.922 13.381 136.98 13.0501L137.026 12.7901H136.05L136.2 11.9392H138.2L138.036 12.8689C137.79 14.2634 137.004 14.9567 135.676 14.9567C134.332 14.9567 133.794 14.2397 134.05 12.7901ZM142.554 10.3557H141.146L140.346 14.8937H139.29L140.09 10.3557H138.682L138.84 9.45751H142.712L142.554 10.3557ZM147.161 9.45751L146.203 14.8937H145.155L145.56 12.5931H143.728L143.323 14.8937H142.275L143.233 9.45751H144.281L143.887 11.695H145.719L146.113 9.45751H147.161Z" fill="#1D6BF5"/>
<path d="M121.04 23.4127C120.734 23.1074 120.64 22.6741 120.739 22.1127L120.776 21.9059H121.996L121.97 22.0537C121.928 22.29 121.955 22.4771 122.074 22.5953C122.194 22.7135 122.383 22.7726 122.643 22.7726C122.883 22.7726 123.097 22.6938 123.265 22.5362C123.433 22.3786 123.549 22.1718 123.598 21.8961L123.629 21.7188C123.681 21.4234 123.641 21.1969 123.519 21.0393C123.387 20.8817 123.18 20.8029 122.89 20.8029H122.54L122.733 19.7098H123.073C123.323 19.7098 123.535 19.6409 123.701 19.4932C123.866 19.3553 123.972 19.1485 124.017 18.8924L124.043 18.7447C124.087 18.4985 124.051 18.3015 123.946 18.1637C123.84 18.0258 123.674 17.947 123.454 17.947C123.214 17.947 123.022 18.0159 122.879 18.144C122.727 18.272 122.635 18.4493 122.597 18.6659L122.568 18.8333H121.368L121.397 18.6659C121.498 18.0947 121.746 17.6516 122.152 17.3364C122.557 17.0213 123.077 16.8539 123.697 16.8539C124.297 16.8539 124.747 17.0213 125.04 17.3463C125.323 17.6713 125.426 18.1046 125.331 18.6462L125.305 18.7939C125.253 19.0894 125.136 19.3553 124.954 19.5916C124.772 19.828 124.541 20.0053 124.257 20.1431C124.534 20.2711 124.719 20.4681 124.833 20.734C124.944 21.0098 124.967 21.3347 124.901 21.709L124.868 21.8961C124.796 22.2999 124.646 22.6445 124.424 22.94C124.192 23.2354 123.91 23.4718 123.572 23.6293C123.224 23.7869 122.86 23.8657 122.47 23.8657C121.82 23.8657 121.346 23.718 121.04 23.4127ZM125.656 22.4082H126.826L126.479 24.3778L125.137 25.3528L125.656 22.4082ZM127.633 22.7332L130.438 19.8083C130.748 19.4735 130.933 19.1583 130.987 18.853L131.011 18.7152C131.053 18.4788 131.016 18.2917 130.91 18.1538C130.805 18.0159 130.647 17.947 130.427 17.947C130.207 17.947 130.013 18.0258 129.868 18.1637C129.712 18.3114 129.618 18.5083 129.573 18.7644L129.545 18.922H128.275L128.316 18.6856C128.379 18.3311 128.515 18.0159 128.723 17.7402C128.932 17.4644 129.21 17.2478 129.548 17.0902C129.876 16.9327 130.249 16.8539 130.669 16.8539C131.069 16.8539 131.404 16.9425 131.676 17.1001C131.946 17.2675 132.148 17.4841 132.26 17.7599C132.371 18.0356 132.407 18.3409 132.348 18.6758L132.319 18.8432C132.267 19.1386 132.158 19.4144 132.015 19.6606C131.859 19.9166 131.654 20.1727 131.409 20.4287L129.302 22.6248H131.652L131.452 23.7574H127.452L127.633 22.7332ZM132.564 22.7332L135.37 19.8083C135.679 19.4735 135.865 19.1583 135.919 18.853L135.943 18.7152C135.985 18.4788 135.948 18.2917 135.842 18.1538C135.736 18.0159 135.578 17.947 135.358 17.947C135.138 17.947 134.944 18.0258 134.8 18.1637C134.644 18.3114 134.549 18.5083 134.504 18.7644L134.476 18.922H133.206L133.248 18.6856C133.311 18.3311 133.446 18.0159 133.655 17.7402C133.863 17.4644 134.142 17.2478 134.479 17.0902C134.807 16.9327 135.181 16.8539 135.601 16.8539C136.001 16.8539 136.335 16.9425 136.608 17.1001C136.878 17.2675 137.08 17.4841 137.191 17.7599C137.303 18.0356 137.339 18.3409 137.28 18.6758L137.25 18.8432C137.198 19.1386 137.09 19.4144 136.946 19.6606C136.791 19.9166 136.586 20.1727 136.341 20.4287L134.233 22.6248H136.583L136.384 23.7574H132.384L132.564 22.7332ZM137.919 23.2847C137.648 22.8907 137.591 22.3097 137.73 21.5219L138.153 19.1189C138.284 18.3803 138.553 17.819 138.97 17.4349C139.388 17.0508 139.933 16.8539 140.613 16.8539C141.313 16.8539 141.788 17.0508 142.062 17.4251C142.334 17.8091 142.405 18.3705 142.273 19.1189L141.85 21.5219C141.712 22.2999 141.44 22.8809 141.031 23.2748C140.621 23.6687 140.076 23.8657 139.376 23.8657C138.676 23.8657 138.189 23.6786 137.919 23.2847ZM140.216 22.4476C140.351 22.2506 140.472 21.9059 140.559 21.4135L140.93 19.306C141.015 18.8235 141.016 18.4788 140.951 18.2818C140.886 18.0849 140.703 17.9864 140.413 17.9864C140.113 17.9864 139.906 18.0849 139.771 18.2818C139.636 18.4788 139.525 18.8235 139.44 19.306L139.069 21.4135C138.982 21.9059 138.971 22.2506 139.036 22.4476C139.102 22.6445 139.284 22.743 139.574 22.743C139.864 22.743 140.082 22.6445 140.216 22.4476ZM145.201 21.1279L145.476 19.5719C145.794 17.7697 146.793 16.8637 148.483 16.8637C149.233 16.8637 149.799 17.0607 150.179 17.4546C150.55 17.8485 150.681 18.4099 150.556 19.1189L150.543 19.1879H149.233L149.244 19.1288C149.305 18.7841 149.243 18.5083 149.08 18.3015C148.915 18.1046 148.644 17.9962 148.274 17.9962C147.854 17.9962 147.521 18.1243 147.286 18.3803C147.051 18.6364 146.886 19.0598 146.784 19.6409L146.525 21.1082C146.428 21.6597 146.446 22.0635 146.603 22.3097C146.758 22.5658 147.047 22.6839 147.467 22.6839C147.837 22.6839 148.134 22.5854 148.369 22.3885C148.604 22.1915 148.751 21.9256 148.812 21.5809L148.825 21.5022H150.115L150.103 21.5711C149.975 22.2999 149.656 22.8612 149.146 23.2551C148.637 23.649 147.994 23.8362 147.234 23.8362C145.554 23.8362 144.882 22.94 145.201 21.1279ZM158.064 16.9622L156.866 23.7574H155.556L156.266 19.7295L154.477 22.4476H153.597L152.752 19.7L152.036 23.7574H150.726L151.924 16.9622H153.234L154.343 20.7143L156.754 16.9622H158.064Z" fill="#1D6BF5"/>
<path opacity="0.5" d="M124.546 34.0822H123.138L122.338 38.6202H121.282L122.082 34.0822H120.674L120.833 33.1841H124.705L124.546 34.0822ZM125.259 38.439C124.982 38.2814 124.788 38.0687 124.67 37.7851C124.544 37.5015 124.52 37.1863 124.583 36.8239L125.225 33.1841H126.273L125.637 36.7924C125.581 37.1076 125.62 37.3439 125.757 37.5172C125.887 37.6906 126.105 37.7693 126.393 37.7693C126.681 37.7693 126.919 37.6906 127.117 37.5172C127.316 37.3439 127.445 37.1076 127.501 36.7924L128.137 33.1841H129.193L128.551 36.8239C128.488 37.1863 128.344 37.5015 128.118 37.7851C127.892 38.0687 127.622 38.2814 127.291 38.439C126.959 38.5966 126.61 38.6675 126.234 38.6675C125.858 38.6675 125.535 38.5966 125.259 38.439ZM131.402 36.4142H130.618L130.229 38.6202H129.181L130.139 33.1841H132.235C132.771 33.1841 133.177 33.3338 133.446 33.6253C133.714 33.9168 133.805 34.3107 133.717 34.807C133.653 35.1695 133.512 35.4688 133.301 35.7131C133.089 35.9652 132.817 36.1464 132.486 36.2567L133.269 38.6202H132.061L131.402 36.4142ZM130.769 35.5555H131.761C132.001 35.5555 132.204 35.4925 132.363 35.3664C132.521 35.2404 132.626 35.0513 132.669 34.807C132.708 34.5864 132.667 34.4131 132.554 34.2792C132.432 34.1531 132.261 34.0822 132.021 34.0822H131.029L130.769 35.5555ZM138.986 33.1841L138.028 38.6202H136.98L135.546 35.2246L134.948 38.6202H133.9L134.858 33.1841H135.906L137.338 36.5876L137.938 33.1841H138.986Z" fill="#1D6BF5"/>
<path d="M120.66 46.4597L123.466 43.5349C123.775 43.2 123.96 42.8849 124.014 42.5796L124.039 42.4417C124.08 42.2054 124.043 42.0182 123.938 41.8804C123.832 41.7425 123.674 41.6736 123.454 41.6736C123.234 41.6736 123.04 41.7523 122.896 41.8902C122.74 42.0379 122.645 42.2349 122.6 42.491L122.572 42.6485H121.302L121.344 42.4122C121.406 42.0576 121.542 41.7425 121.75 41.4668C121.959 41.191 122.237 40.9744 122.575 40.8168C122.903 40.6592 123.277 40.5804 123.697 40.5804C124.097 40.5804 124.431 40.6691 124.703 40.8266C124.974 40.994 125.176 41.2107 125.287 41.4865C125.398 41.7622 125.435 42.0675 125.376 42.4023L125.346 42.5697C125.294 42.8652 125.185 43.1409 125.042 43.3871C124.887 43.6432 124.682 43.8992 124.436 44.1553L122.329 46.3514H124.679L124.479 47.4839H120.479L120.66 46.4597ZM130.399 40.6888L130.201 41.8114L127.101 47.4839H125.781L128.921 41.8114H126.231L126.429 40.6888H130.399Z" fill="#1D6BF5"/>
<path opacity="0.5" d="M121.257 56.9106H122.305L121.504 61.4486H123.92L123.762 62.3468H120.298L121.257 56.9106ZM127.505 61.2911H125.609L125.087 62.3468H123.983L126.902 56.9106H127.758L128.767 62.3468H127.655L127.505 61.2911ZM127.377 60.4323L127.073 58.3445L126.041 60.4323H127.377ZM133.536 57.3676C133.802 57.6749 133.897 58.0924 133.804 58.6203C133.715 59.1245 133.474 59.5342 133.102 59.8335C132.729 60.1329 132.262 60.2826 131.702 60.2826H130.686L130.323 62.3468H129.275L130.233 56.9106H132.297C132.857 56.9106 133.269 57.0682 133.536 57.3676ZM132.441 59.1796C132.607 59.0536 132.713 58.8645 132.756 58.6203C132.801 58.3603 132.764 58.1633 132.645 58.0215C132.526 57.8797 132.347 57.8088 132.091 57.8088H131.123L130.846 59.3766H131.814C132.062 59.3766 132.273 59.3136 132.441 59.1796ZM134.162 61.9607C133.877 61.6692 133.768 61.2438 133.833 60.6923H134.825C134.805 60.9917 134.863 61.2044 135.001 61.3305C135.139 61.4565 135.361 61.5117 135.673 61.5117C136.265 61.5117 136.603 61.2753 136.687 60.7947C136.725 60.582 136.69 60.4166 136.597 60.3063C136.497 60.196 136.327 60.1172 136.079 60.0699L135.574 59.9832C134.602 59.8257 134.195 59.3214 134.345 58.4706C134.434 57.9664 134.671 57.5724 135.06 57.273C135.448 56.9815 135.93 56.8319 136.49 56.8319C137.034 56.8319 137.433 56.9737 137.703 57.2573C137.973 57.5409 138.078 57.9427 138.036 58.4548H137.028C137.058 58.1948 137.011 58.0057 136.897 57.8797C136.774 57.7615 136.585 57.6985 136.321 57.6985C136.049 57.6985 135.83 57.7615 135.672 57.8876C135.506 58.0136 135.412 58.1791 135.375 58.3918C135.342 58.5809 135.371 58.7306 135.48 58.8409C135.58 58.9512 135.758 59.0299 136.014 59.0772L136.58 59.1796C137.493 59.353 137.885 59.8572 137.735 60.7081C137.637 61.2596 137.38 61.6771 136.978 61.9607C136.574 62.2522 136.069 62.394 135.469 62.394C134.877 62.394 134.438 62.2522 134.162 61.9607Z" fill="#1D6BF5"/>
<path d="M122.466 65.8433L121.16 66.6705L121.407 65.2721L122.718 64.4153H124.028L122.829 71.2105H121.519L122.466 65.8433Z" fill="#1D6BF5"/>
<path opacity="0.5" d="M126.169 80.6372L125.21 86.0733H124.162L124.73 82.8511L123.299 85.0255H122.595L121.918 82.8274L121.346 86.0733H120.298L121.257 80.6372H122.305L123.191 83.6389L125.121 80.6372H126.169ZM129.239 85.0176H127.343L126.821 86.0733H125.717L128.636 80.6372H129.492L130.501 86.0733H129.389L129.239 85.0176ZM129.111 84.1589L128.807 82.0711L127.775 84.1589H129.111ZM133.23 83.8674H132.446L132.057 86.0733H131.009L131.967 80.6372H134.063C134.599 80.6372 135.005 80.7869 135.274 81.0784C135.542 81.3699 135.633 81.7638 135.545 82.2602C135.481 82.6226 135.341 82.922 135.13 83.1662C134.917 83.4183 134.645 83.5995 134.314 83.7098L135.097 86.0733H133.889L133.23 83.8674ZM132.597 83.0086H133.589C133.829 83.0086 134.032 82.9456 134.191 82.8195C134.349 82.6935 134.454 82.5044 134.497 82.2602C134.536 82.0396 134.495 81.8662 134.382 81.7323C134.261 81.6063 134.089 81.5353 133.849 81.5353H132.857L132.597 83.0086ZM139.848 83.7571C139.939 83.9698 139.966 84.2219 139.915 84.5134C139.827 85.0097 139.607 85.3958 139.264 85.6637C138.911 85.9394 138.472 86.0733 137.944 86.0733H135.728L136.686 80.6372H138.814C139.35 80.6372 139.743 80.7711 140.001 81.0311C140.258 81.299 140.344 81.6693 140.259 82.1499C140.216 82.3941 140.114 82.6147 139.957 82.8195C139.793 83.0244 139.599 83.1741 139.365 83.2765C139.593 83.3868 139.756 83.5522 139.848 83.7571ZM137.576 81.5353L137.342 82.8589H138.342C138.582 82.8589 138.768 82.8038 138.916 82.6935C139.063 82.5832 139.156 82.4177 139.192 82.2129C139.231 81.9923 139.196 81.8269 139.089 81.7087C138.981 81.5984 138.816 81.5353 138.576 81.5353H137.576ZM138.591 84.9861C138.742 84.8601 138.838 84.6789 138.879 84.4425C138.917 84.2298 138.882 84.0643 138.776 83.9383C138.669 83.8201 138.496 83.7571 138.248 83.7571H137.184L136.934 85.1752H137.998C138.246 85.1752 138.441 85.1122 138.591 84.9861ZM141.389 80.6372H142.437L141.637 85.1752H144.053L143.895 86.0733H140.431L141.389 80.6372ZM146.404 81.5353L146.166 82.8826H148.262L148.104 83.7807H146.008L145.762 85.1752H148.218L148.06 86.0733H144.556L145.514 80.6372H149.018L148.86 81.5353H146.404ZM149.162 85.6873C148.877 85.3958 148.768 84.9704 148.833 84.4189H149.825C149.805 84.7182 149.863 84.931 150.001 85.057C150.139 85.1831 150.361 85.2382 150.673 85.2382C151.265 85.2382 151.603 85.0019 151.687 84.5213C151.725 84.3086 151.69 84.1431 151.597 84.0328C151.497 83.9225 151.327 83.8437 151.079 83.7965L150.574 83.7098C149.602 83.5522 149.195 83.048 149.345 82.1971C149.434 81.6929 149.671 81.299 150.06 80.9996C150.448 80.7081 150.93 80.5584 151.49 80.5584C152.034 80.5584 152.433 80.7002 152.703 80.9839C152.973 81.2675 153.078 81.6693 153.036 82.1814H152.028C152.058 81.9214 152.011 81.7323 151.897 81.6063C151.774 81.4881 151.585 81.425 151.321 81.425C151.049 81.425 150.83 81.4881 150.672 81.6141C150.506 81.7402 150.412 81.9056 150.375 82.1184C150.342 82.3074 150.371 82.4571 150.48 82.5674C150.58 82.6777 150.758 82.7565 151.014 82.8038L151.58 82.9062C152.493 83.0795 152.885 83.5837 152.735 84.4346C152.637 84.9861 152.38 85.4037 151.978 85.6873C151.574 85.9788 151.069 86.1206 150.469 86.1206C149.877 86.1206 149.438 85.9788 149.162 85.6873Z" fill="#1D6BF5"/>
<path d="M122.466 89.5699L121.16 90.3971L121.407 88.9987L122.718 88.1419H124.028L122.829 94.9371H121.519L122.466 89.5699ZM124.559 94.4643C124.289 94.0704 124.231 93.4894 124.37 92.7015L124.794 90.2986C124.924 89.56 125.193 88.9987 125.611 88.6146C126.029 88.2305 126.573 88.0336 127.253 88.0336C127.953 88.0336 128.429 88.2305 128.703 88.6047C128.975 88.9888 129.046 89.5502 128.914 90.2986L128.49 92.7015C128.353 93.4795 128.081 94.0606 127.671 94.4545C127.262 94.8484 126.717 95.0454 126.017 95.0454C125.317 95.0454 124.83 94.8583 124.559 94.4643ZM126.857 93.6273C126.992 93.4303 127.113 93.0856 127.199 92.5932L127.571 90.4857C127.656 90.0032 127.657 89.6585 127.592 89.4615C127.526 89.2646 127.344 89.1661 127.054 89.1661C126.754 89.1661 126.546 89.2646 126.412 89.4615C126.277 89.6585 126.166 90.0032 126.081 90.4857L125.709 92.5932C125.623 93.0856 125.612 93.4303 125.677 93.6273C125.742 93.8242 125.925 93.9227 126.215 93.9227C126.505 93.9227 126.722 93.8242 126.857 93.6273Z" fill="#1D6BF5"/>
<path d="M98.7531 10.6764H85.8496C80.0599 10.6764 75.7763 16.0641 77.0812 21.7049L78.2065 26.569C78.5699 28.1398 79.6161 29.4661 81.0592 30.1851L93.1435 36.2066C97.2355 38.2456 101.852 34.5943 100.81 30.1427L99.3515 23.9126C98.7949 21.5345 96.3599 20.1076 94.0131 20.7843V20.7843C85.9963 23.096 81.6803 31.7784 84.6774 39.565L86.0024 43.0074C86.9697 45.5207 89.6729 46.904 92.2772 46.2185L97.3063 44.8947C101.14 43.8857 104.718 47.2136 103.989 51.1101L98.5516 80.165C97.9742 83.2501 94.8974 85.1947 91.863 84.3922L86.934 83.0886C84.3525 82.4059 83.3867 79.2489 85.1443 77.2386L91.1633 70.3547C93.2077 68.0165 92.8631 64.4398 90.4099 62.535L88.5564 61.0959L78.5407 54.1152C77.0928 53.1061 76.2294 51.4531 76.2284 49.6883L76.222 39.0192C76.2214 38.0758 76.0725 37.1383 75.7808 36.2412L69.8825 18.1045C69.3278 16.3987 67.9622 15.0797 66.2382 14.5844L54.0801 11.0917C50.4175 10.0395 46.4715 10.9953 43.6965 13.6069L32.3125 24.3204C30.0699 26.4309 30.0436 29.9866 32.2548 32.1301L36.9296 36.6617C38.7726 38.4482 39.1033 41.2853 37.7206 43.4478L35.279 47.2666C34.0827 49.1377 34.1539 51.5504 35.4585 53.3477L44.0022 65.1176C46.2262 68.1814 51.0651 66.1768 50.471 62.4379L44.6224 25.6313C43.8434 20.6972 47.6976 15.291 53.6482 17.0856C61.2991 19.393 54.9733 31.6133 53.6981 37.168C53.6492 37.381 53.5963 37.6321 53.5404 37.9133C52.8914 41.1797 56.7719 43.3093 59.2948 41.1354L60.1041 40.4381C60.6417 39.9749 61.0516 39.3816 61.2947 38.715V38.715C61.6763 37.6683 62.4626 36.819 63.4767 36.3577L63.7404 36.2378C67.8486 34.3693 72.0544 38.6405 70.1226 42.7194L69.8064 43.3871C69.4806 44.0749 69.0055 44.6813 68.4156 45.1621L61.2527 51.0003C61.0339 51.1787 60.8016 51.3383 60.5605 51.4853C59.4925 52.1368 57.9357 53.1888 56.6739 54.0582C55.3602 54.9633 54.6766 56.5304 54.8818 58.1125V58.1125C55.3045 61.3696 59.0693 62.9758 61.713 61.0269L61.8134 60.9529C62.0697 60.7639 62.3047 60.5476 62.5142 60.3077L66.6899 55.5252C67.6605 54.4136 69.1313 53.8741 70.5905 54.0944V54.0944C72.8086 54.4294 74.4016 56.4058 74.2578 58.6445L74.2537 58.709C74.1581 60.1971 73.314 61.535 72.0122 62.2621L63.9287 66.7765C60.1073 68.9107 61.3793 74.7056 65.7433 75.043V75.043C67.0035 75.1405 68.2451 74.6938 69.1544 73.8159L77.4671 65.7903C78.0398 65.2374 78.7666 64.871 79.5517 64.7395V64.7395C82.4772 64.2493 84.8739 67.0472 83.9403 69.8628L83.7638 70.395C83.5554 71.0235 83.2039 71.5951 82.7369 72.0645L62.9036 92.006C61.3929 93.525 58.898 93.3965 57.5513 91.7303L51.4209 84.1455C50.2501 82.6969 47.9987 82.8409 47.022 84.427L44.7149 88.1735C43.9374 89.436 42.675 90.3233 41.2237 90.6273L35.7962 91.7639C34.2134 92.0954 32.3974 91.7453 31.8295 90.2311C31.2469 88.6777 31.3723 86.5302 33.7209 84.1692C37.4613 80.4091 36.6962 76.6205 35.8462 75.1962C35.2344 74.4056 33.4178 72.9646 32.1154 71.9764C31.2103 71.2897 30.5746 70.3026 30.3571 69.1875L30.1899 68.3307C29.4752 64.6662 33.615 62.0184 36.6419 64.204V64.204C36.9271 64.4099 37.1846 64.6515 37.4084 64.9229L39.8444 67.8773C40.5613 68.7468 40.9882 69.8187 41.0653 70.943L41.3247 74.7235C41.5238 77.626 44.9052 79.1057 47.1723 77.2825L48.4019 76.2936C50.6516 74.4844 53.9266 74.764 55.8609 76.9071C57.8087 79.0651 60.2399 81.7211 62.1991 83.7419C64.6729 86.2937 67.6388 89.4048 69.7332 91.6098C71.4384 93.405 73.8034 94.424 76.2794 94.424H103.979C106.962 94.424 109.379 92.0064 109.379 89.024V16.0764C109.379 13.0941 106.962 10.6764 103.979 10.6764H98.7531Z" stroke="#C2D6FF" stroke-width="4.5"/>
<path d="M98.2154 10.6744H95.7341M86.1478 10.6744H85.8496C80.0599 10.6744 75.7763 16.0621 77.0812 21.7029L78.2065 26.5671C78.5699 28.1379 79.6162 29.4641 81.0592 30.1832L93.1435 36.2046C97.2355 38.2437 101.852 34.5923 100.81 30.1408L99.5145 24.6071C98.8858 21.9213 96.0378 20.4015 93.4567 21.3745L91.9707 21.9347C88.5981 23.2061 85.983 25.9369 84.8586 29.3613V29.3613M102.564 59.1036L104.031 51.0757C104.742 47.1858 101.169 43.8761 97.3447 44.8827L92.8781 46.0584C90.012 46.8128 86.9303 45.1638 85.7418 42.4488C85.1694 41.1412 84.5846 39.5947 84.0298 37.1147C84.0243 37.09 84.0185 37.0646 84.0128 37.0399C83.9592 36.8056 83.6714 35.5043 83.6714 34.5403M100.89 67.65L98.5508 80.1619C97.9739 83.2475 94.8968 85.1926 91.8621 84.39L86.9098 83.0803C84.3342 82.3991 83.3651 79.2533 85.111 77.2408L91.0947 70.3434C93.0916 68.0416 92.7895 64.5444 90.4275 62.6191L88.5564 61.0939L78.5407 54.1133C77.0928 53.1041 76.2294 51.4512 76.2284 49.6863L76.222 39.0172C76.2214 38.0738 76.0725 37.1364 75.7808 36.2392L74.4912 32.2739M71.7827 23.9455L69.8825 18.1025C69.3278 16.3968 67.9622 15.0778 66.2382 14.5825L54.0801 11.0897C50.4175 10.0375 46.4715 10.9934 43.6965 13.605L32.3125 24.3184C30.0698 26.429 30.0436 29.9847 32.2548 32.1282L37.0449 36.7715C38.8354 38.5071 39.2046 41.243 37.9383 43.3911L35.1667 48.0927C34.0383 50.007 34.1977 52.4171 35.5685 54.166L37.2338 56.2908M42.4024 62.8856L43.8565 64.7776C46.1269 67.7316 50.8394 65.7138 50.2684 62.0321L46.0947 35.1219M78.5756 76.2466L82.7369 72.0626C83.2039 71.5931 83.5554 71.0216 83.7638 70.3931V70.3931C84.7775 67.3359 82.1752 64.298 78.9987 64.8302L78.3464 64.9395L69.6138 73.4067C68.9159 74.0833 68.1538 74.7326 67.2222 75.0097C63.4318 76.1372 60.7029 72.4832 61.6285 69.574M72.4002 82.4557L62.9036 92.0041C61.3929 93.5231 58.898 93.3946 57.5513 91.7284L51.4209 84.1436C50.2501 82.6949 47.9987 82.839 47.022 84.425L44.7149 88.1715C43.9374 89.4341 42.675 90.3214 41.2237 90.6253L35.7962 91.762C34.2134 92.0935 32.3974 91.7433 31.8295 90.2292C31.2469 88.6758 31.3723 86.5282 33.7209 84.1673C37.4613 80.4072 36.6962 76.6186 35.8462 75.1943C35.2344 74.4036 33.4178 72.9627 32.1154 71.9745C31.2103 71.2878 30.5746 70.3006 30.3571 69.1856L30.1899 68.3287C29.4752 64.6642 33.615 62.0164 36.6419 64.2021V64.2021C36.9271 64.408 37.1846 64.6495 37.4084 64.9209L39.8444 67.8754C40.5613 68.7448 40.9882 69.8168 41.0653 70.941L41.3247 74.7215C41.5238 77.624 44.9052 79.1038 47.1723 77.2805L48.4019 76.2917C50.6516 74.4824 53.9266 74.762 55.8609 76.9052C57.8087 79.0632 60.2399 81.7191 62.1991 83.74C62.8614 84.4231 63.7637 85.3615 64.6806 86.3176M88.661 94.4221H98.2189M79.0099 94.4221H76.2794C73.8034 94.4221 71.4371 93.4016 69.7318 91.6063C69.3663 91.2215 68.9742 90.8091 68.5629 90.3769M74.0601 59.8489V59.8489C75.1485 57.2928 73.4914 54.4049 70.7354 54.0548L70.5405 54.03C69.1076 53.848 67.6782 54.3915 66.7281 55.4795L62.5142 60.3057C62.3047 60.5456 62.0697 60.762 61.8134 60.951L61.713 61.0249C59.0693 62.9739 55.3045 61.3676 54.8818 58.1105V58.1105C54.6766 56.5285 55.3602 54.9614 56.6739 54.0563C57.9357 53.1869 59.4925 52.1348 60.5605 51.4834C60.8016 51.3364 61.0339 51.1768 61.2527 50.9984L68.3898 45.1812C68.9963 44.6869 69.4812 44.0601 69.8073 43.3489L70.1211 42.6647C71.9797 38.6122 67.8247 34.4197 63.7556 36.2419L63.4858 36.3628C62.4665 36.8192 61.6754 37.6689 61.2928 38.7181V38.7181C61.0509 39.3814 60.6431 39.9717 60.1082 40.4326L59.2948 41.1334C56.7719 43.3073 52.8914 41.1778 53.5404 37.9114C53.5963 37.6302 53.6492 37.379 53.6981 37.166C54.9733 31.6113 61.2991 19.391 53.6482 17.0837C47.6976 15.2891 43.805 20.5561 44.6224 25.6294L45.1171 28.8186M66.9377 65.1223L68.5629 64.1898" stroke="#1F6FF8" stroke-linecap="round"/>
<path fill-rule="evenodd" clip-rule="evenodd" d="M94.0856 9.14519C94.2233 9.27431 94.2303 9.49063 94.1011 9.62835L93.0809 10.7166L94.1011 11.8049C94.2303 11.9426 94.2233 12.1589 94.0856 12.2881C93.9478 12.4172 93.7315 12.4102 93.6024 12.2725L92.363 10.9504C92.2397 10.8189 92.2397 10.6143 92.363 10.4828L93.6024 9.16077C93.7315 9.02305 93.9478 9.01607 94.0856 9.14519Z" fill="#1F6FF8"/>
<path fill-rule="evenodd" clip-rule="evenodd" d="M91.7862 9.14616C91.924 9.27528 91.9309 9.4916 91.8018 9.62933L90.7816 10.7176L91.8018 11.8059C91.9309 11.9436 91.924 12.1599 91.7862 12.289C91.6485 12.4181 91.4322 12.4112 91.3031 12.2734L90.0636 10.9514C89.9404 10.8199 89.9404 10.6153 90.0636 10.4838L91.3031 9.16175C91.4322 9.02402 91.6485 9.01705 91.7862 9.14616Z" fill="#1F6FF8"/>
<path fill-rule="evenodd" clip-rule="evenodd" d="M89.4874 9.14714C89.6251 9.27626 89.6321 9.49258 89.503 9.63031L88.4827 10.7186L89.503 11.8068C89.6321 11.9446 89.6251 12.1609 89.4874 12.29C89.3497 12.4191 89.1334 12.4121 89.0042 12.2744L87.7648 10.9524C87.6415 10.8209 87.6415 10.6163 87.7648 10.4848L89.0042 9.16273C89.1334 9.025 89.3497 9.01802 89.4874 9.14714Z" fill="#1F6FF8"/>
<path fill-rule="evenodd" clip-rule="evenodd" d="M80.7621 92.8913C80.6244 93.0204 80.6174 93.2367 80.7465 93.3744L81.7668 94.4627L80.7465 95.551C80.6174 95.6887 80.6244 95.905 80.7621 96.0341C80.8998 96.1633 81.1161 96.1563 81.2453 96.0186L82.4847 94.6965C82.608 94.565 82.608 94.3604 82.4847 94.2289L81.2453 92.9069C81.1161 92.7691 80.8998 92.7622 80.7621 92.8913Z" fill="#1F6FF8"/>
<path fill-rule="evenodd" clip-rule="evenodd" d="M83.0614 92.8923C82.9237 93.0214 82.9167 93.2377 83.0458 93.3754L84.0661 94.4637L83.0458 95.552C82.9167 95.6897 82.9237 95.906 83.0614 96.0351C83.1991 96.1642 83.4155 96.1573 83.5446 96.0195L84.784 94.6975C84.9073 94.566 84.9073 94.3614 84.784 94.2299L83.5446 92.9078C83.4155 92.7701 83.1991 92.7631 83.0614 92.8923Z" fill="#1F6FF8"/>
<path fill-rule="evenodd" clip-rule="evenodd" d="M85.3602 92.8932C85.2225 93.0224 85.2155 93.2387 85.3447 93.3764L86.3649 94.4647L85.3447 95.5529C85.2155 95.6907 85.2225 95.907 85.3602 96.0361C85.498 96.1652 85.7143 96.1582 85.8434 96.0205L87.0828 94.6985C87.2061 94.567 87.2061 94.3624 87.0828 94.2309L85.8434 92.9088C85.7143 92.7711 85.498 92.7641 85.3602 92.8932Z" fill="#1F6FF8"/>
<path fill-rule="evenodd" clip-rule="evenodd" d="M100.805 59.8315C100.958 59.7216 101.172 59.7569 101.282 59.9104L102.15 61.1232L103.417 60.3347C103.577 60.2349 103.788 60.2839 103.887 60.4441C103.987 60.6044 103.938 60.8152 103.778 60.915L102.24 61.873C102.087 61.9682 101.886 61.9283 101.781 61.7818L100.726 60.3085C100.616 60.155 100.651 59.9415 100.805 59.8315Z" fill="#1F6FF8"/>
<path fill-rule="evenodd" clip-rule="evenodd" d="M100.358 62.0864C100.511 61.9765 100.725 62.0118 100.834 62.1653L101.703 63.3781L102.969 62.5895C103.13 62.4897 103.34 62.5388 103.44 62.699C103.54 62.8593 103.491 63.0701 103.331 63.1699L101.792 64.1278C101.639 64.2231 101.439 64.1832 101.334 64.0367L100.279 62.5634C100.169 62.4099 100.204 62.1963 100.358 62.0864Z" fill="#1F6FF8"/>
<path fill-rule="evenodd" clip-rule="evenodd" d="M99.9103 64.3413C100.064 64.2314 100.277 64.2667 100.387 64.4202L101.256 65.633L102.522 64.8444C102.682 64.7446 102.893 64.7936 102.993 64.9539C103.093 65.1141 103.044 65.325 102.883 65.4247L101.345 66.3827C101.192 66.478 100.991 66.4381 100.887 66.2916L99.8314 64.8182C99.7215 64.6648 99.7568 64.4512 99.9103 64.3413Z" fill="#1F6FF8"/>
<path fill-rule="evenodd" clip-rule="evenodd" d="M39.1978 55.7575C39.0124 55.7218 38.8332 55.8431 38.7974 56.0285L38.5151 57.4933L37.0352 57.3059C36.8479 57.2822 36.6768 57.4148 36.6531 57.6021C36.6294 57.7894 36.762 57.9604 36.9493 57.9841L38.7472 58.2117C38.926 58.2344 39.0916 58.1143 39.1257 57.9373L39.4687 56.1579C39.5045 55.9725 39.3832 55.7933 39.1978 55.7575Z" fill="#1F6FF8"/>
<path fill-rule="evenodd" clip-rule="evenodd" d="M40.5459 57.6198C40.3606 57.5841 40.1813 57.7054 40.1456 57.8908L39.8632 59.3556L38.3833 59.1682C38.196 59.1445 38.025 59.2771 38.0013 59.4644C37.9776 59.6517 38.1102 59.8227 38.2975 59.8464L40.0953 60.074C40.2741 60.0967 40.4398 59.9766 40.4739 59.7996L40.8169 58.0202C40.8526 57.8348 40.7313 57.6556 40.5459 57.6198Z" fill="#1F6FF8"/>
<path fill-rule="evenodd" clip-rule="evenodd" d="M41.8946 59.4812C41.7092 59.4454 41.53 59.5668 41.4942 59.7521L41.2119 61.2169L39.732 61.0295C39.5447 61.0058 39.3736 61.1384 39.3499 61.3257C39.3262 61.513 39.4588 61.6841 39.6461 61.7078L41.4439 61.9354C41.6227 61.958 41.7884 61.8379 41.8225 61.661L42.1655 59.8815C42.2012 59.6961 42.0799 59.5169 41.8946 59.4812Z" fill="#1F6FF8"/>
<path fill-rule="evenodd" clip-rule="evenodd" d="M76.7507 75.7087C76.9393 75.7026 77.0972 75.8506 77.1033 76.0393L77.1514 77.5303L78.6424 77.5784C78.8311 77.5845 78.9791 77.7424 78.973 77.931C78.9669 78.1197 78.809 78.2678 78.6203 78.2617L76.8091 78.2032C76.6289 78.1974 76.4843 78.0528 76.4785 77.8726L76.42 76.0614C76.4139 75.8727 76.562 75.7148 76.7507 75.7087Z" fill="#1F6FF8"/>
<path fill-rule="evenodd" clip-rule="evenodd" d="M75.1257 77.3347C75.3143 77.3286 75.4722 77.4766 75.4783 77.6653L75.5264 79.1563L77.0174 79.2043C77.2061 79.2104 77.3541 79.3683 77.348 79.557C77.3419 79.7457 77.184 79.8937 76.9953 79.8876L75.1841 79.8292C75.0039 79.8234 74.8593 79.6787 74.8535 79.4986L74.795 77.6873C74.7889 77.4987 74.937 77.3408 75.1257 77.3347Z" fill="#1F6FF8"/>
<path fill-rule="evenodd" clip-rule="evenodd" d="M73.5007 78.9616C73.6893 78.9555 73.8472 79.1036 73.8533 79.2923L73.9014 80.7832L75.3924 80.8313C75.5811 80.8374 75.7291 80.9953 75.723 81.184C75.7169 81.3727 75.559 81.5207 75.3703 81.5146L73.5591 81.4562C73.3789 81.4504 73.2343 81.3057 73.2285 81.1255L73.17 79.3143C73.1639 79.1256 73.312 78.9677 73.5007 78.9616Z" fill="#1F6FF8"/>
<path fill-rule="evenodd" clip-rule="evenodd" d="M72.5701 31.444C72.7356 31.5349 72.9434 31.4744 73.0343 31.309L73.7526 30.0016L75.1036 30.6341C75.2746 30.7141 75.4781 30.6404 75.5581 30.4694C75.6381 30.2984 75.5644 30.095 75.3935 30.0149L73.7522 29.2465C73.589 29.1701 73.3945 29.2335 73.3077 29.3915L72.4351 30.9798C72.3442 31.1453 72.4047 31.3531 72.5701 31.444Z" fill="#1F6FF8"/>
<path fill-rule="evenodd" clip-rule="evenodd" d="M71.8577 29.2584C72.0232 29.3493 72.231 29.2889 72.3219 29.1234L73.0402 27.816L74.3912 28.4485C74.5622 28.5286 74.7656 28.4549 74.8457 28.2839C74.9257 28.1129 74.852 27.9094 74.6811 27.8294L73.0398 27.061C72.8766 26.9846 72.6821 27.048 72.5953 27.206L71.7227 28.7943C71.6318 28.9597 71.6923 29.1675 71.8577 29.2584Z" fill="#1F6FF8"/>
<path fill-rule="evenodd" clip-rule="evenodd" d="M71.1458 27.0719C71.3113 27.1628 71.5191 27.1024 71.61 26.9369L72.3283 25.6295L73.6793 26.262C73.8502 26.342 74.0537 26.2683 74.1338 26.0974C74.2138 25.9264 74.1401 25.7229 73.9691 25.6428L72.3279 24.8745C72.1647 24.798 71.9702 24.8615 71.8834 25.0194L71.0108 26.6077C70.9199 26.7732 70.9804 26.981 71.1458 27.0719Z" fill="#1F6FF8"/>
<path fill-rule="evenodd" clip-rule="evenodd" d="M101.056 8.82422H101.503V8.44922H101.046V8.82422C100.991 8.82216 100.933 8.82324 100.875 8.82432H100.875H100.875C100.781 8.82607 100.686 8.82783 100.608 8.81607V8.44922H100.151C100.148 8.49557 100.15 8.54492 100.151 8.59427V8.59427V8.59427C100.153 8.67536 100.155 8.75646 100.141 8.82422H99.7033V9.19922H100.151V9.57422H99.7026V9.94922H100.15V10.3242C100.081 10.3247 100.001 10.3244 99.9236 10.3241H99.9236H99.9236C99.8403 10.3238 99.7607 10.3236 99.7026 10.3242V10.6992H100.151C100.148 10.7456 100.15 10.7949 100.151 10.8443C100.153 10.9254 100.155 11.0065 100.141 11.0742H99.7034V11.4492H100.151V11.8242H99.7026V12.1992H100.15V12.5742C100.081 12.5747 100.001 12.5744 99.9238 12.5741H99.9237H99.9236H99.9236H99.9235H99.9234H99.9234C99.8401 12.5738 99.7606 12.5736 99.7026 12.5742V12.9492H100.16V12.5824C100.238 12.5706 100.333 12.5724 100.427 12.5741C100.485 12.5752 100.543 12.5763 100.597 12.5742V12.9492H101.055V12.5742H101.502V12.1992H101.065C101.051 12.1315 101.053 12.0504 101.055 11.9693C101.056 11.9199 101.057 11.8706 101.055 11.8242H101.503V11.4492C101.445 11.4486 101.366 11.4488 101.282 11.4491H101.282H101.282H101.282C101.205 11.4494 101.125 11.4497 101.056 11.4492V11.0742H101.503V10.6992H101.055V10.3242H101.502V9.94922H101.065C101.051 9.88146 101.053 9.80037 101.055 9.71927V9.71927C101.056 9.66992 101.057 9.62057 101.055 9.57422H101.503V9.19922C101.445 9.19857 101.365 9.19884 101.282 9.19912H101.282H101.282H101.282H101.282C101.205 9.19938 101.125 9.19966 101.056 9.19922V8.82422ZM101.046 9.57422V9.20737C100.968 9.19561 100.873 9.19737 100.779 9.19912C100.721 9.2002 100.662 9.20128 100.608 9.19922V9.57422H101.046ZM100.597 9.57422H100.16V9.94922C100.214 9.94716 100.272 9.94824 100.33 9.94932C100.425 9.95107 100.519 9.95283 100.597 9.94107V9.57422ZM101.046 10.6992H100.608V11.0661C100.686 11.0778 100.781 11.0761 100.875 11.0743C100.933 11.0732 100.991 11.0722 101.046 11.0742V10.6992ZM100.597 10.6992V10.3242C100.543 10.3263 100.485 10.3252 100.427 10.3241C100.333 10.3224 100.238 10.3206 100.16 10.3324V10.6992H100.597ZM100.329 9.19961H100.329H100.329C100.271 9.19858 100.213 9.19755 100.159 9.19951V8.82451H100.597V9.19136C100.518 9.20299 100.424 9.2013 100.329 9.19961H100.329H100.329ZM100.16 11.8242V12.1992C100.214 12.1972 100.272 12.1982 100.33 12.1993C100.425 12.2011 100.519 12.2028 100.597 12.1911V11.8242H100.16ZM100.608 11.8242H101.046V11.4574C100.968 11.4456 100.873 11.4474 100.779 11.4491C100.721 11.4502 100.663 11.4513 100.608 11.4492V11.8242ZM100.16 11.4495C100.214 11.4476 100.271 11.4486 100.329 11.4496H100.329C100.424 11.4513 100.518 11.453 100.597 11.4414V11.0745H100.16V11.4495ZM100.877 12.5746H100.877C100.782 12.5763 100.687 12.578 100.609 12.5664V12.1995H101.046V12.5745C100.992 12.5726 100.935 12.5736 100.877 12.5746ZM100.877 10.3246H100.877C100.782 10.3263 100.687 10.328 100.609 10.3164V9.94951H101.046V10.3245C100.992 10.3226 100.935 10.3236 100.877 10.3246Z" fill="white"/>
<path fill-rule="evenodd" clip-rule="evenodd" d="M101.056 92.5234H101.503V92.1484H101.046V92.5234C100.991 92.5214 100.933 92.5225 100.875 92.5235H100.875H100.875C100.781 92.5253 100.686 92.527 100.608 92.5153V92.1484H100.151C100.148 92.1948 100.15 92.2441 100.151 92.2935V92.2935V92.2935C100.153 92.3746 100.155 92.4557 100.141 92.5234H99.7033V92.8984H100.151V93.2734H99.7026V93.6484H100.15V94.0234C100.081 94.0239 100.001 94.0236 99.9236 94.0233H99.9236H99.9236C99.8403 94.0231 99.7607 94.0228 99.7026 94.0234V94.3984H100.151C100.148 94.4448 100.15 94.4941 100.151 94.5435C100.153 94.6246 100.155 94.7057 100.141 94.7734H99.7034V95.1484H100.151V95.5234H99.7026V95.8984H100.15V96.2734C100.081 96.2739 100.001 96.2736 99.9238 96.2733H99.9237H99.9236H99.9236H99.9235H99.9234H99.9234C99.8401 96.2731 99.7606 96.2728 99.7026 96.2734V96.6484H100.16V96.2816C100.238 96.2698 100.333 96.2716 100.427 96.2733C100.485 96.2744 100.543 96.2755 100.597 96.2734V96.6484H101.055V96.2734H101.502V95.8984H101.065C101.051 95.8307 101.053 95.7496 101.055 95.6685C101.056 95.6191 101.057 95.5698 101.055 95.5234H101.503V95.1484C101.445 95.1478 101.366 95.1481 101.282 95.1483H101.282H101.282H101.282C101.205 95.1486 101.125 95.1489 101.056 95.1484V94.7734H101.503V94.3984H101.055V94.0234H101.502V93.6484H101.065C101.051 93.5807 101.053 93.4996 101.055 93.4185V93.4185C101.056 93.3691 101.057 93.3198 101.055 93.2734H101.503V92.8984C101.445 92.8978 101.365 92.8981 101.282 92.8983H101.282H101.282H101.282H101.282C101.205 92.8986 101.125 92.8989 101.056 92.8984V92.5234ZM101.046 93.2734V92.9066C100.968 92.8948 100.873 92.8966 100.779 92.8983C100.721 92.8994 100.662 92.9005 100.608 92.8984V93.2734H101.046ZM100.597 93.2734H100.16V93.6484C100.214 93.6464 100.272 93.6475 100.33 93.6485C100.425 93.6503 100.519 93.652 100.597 93.6403V93.2734ZM101.046 94.3984H100.608V94.7653C100.686 94.777 100.781 94.7753 100.875 94.7735C100.933 94.7725 100.991 94.7714 101.046 94.7734V94.3984ZM100.597 94.3984V94.0234C100.543 94.0255 100.485 94.0244 100.427 94.0233C100.333 94.0216 100.238 94.0198 100.16 94.0316V94.3984H100.597ZM100.329 92.8988H100.329H100.329C100.271 92.8978 100.213 92.8968 100.159 92.8987V92.5237H100.597V92.8906C100.518 92.9022 100.424 92.9005 100.329 92.8988H100.329H100.329ZM100.16 95.5234V95.8984C100.214 95.8964 100.272 95.8975 100.33 95.8985C100.425 95.9003 100.519 95.902 100.597 95.8903V95.5234H100.16ZM100.608 95.5234H101.046V95.1566C100.968 95.1448 100.873 95.1466 100.779 95.1483C100.721 95.1494 100.663 95.1505 100.608 95.1484V95.5234ZM100.16 95.1487C100.214 95.1468 100.271 95.1478 100.329 95.1488H100.329C100.424 95.1505 100.518 95.1522 100.597 95.1406V94.7737H100.16V95.1487ZM100.877 96.2738H100.877C100.782 96.2755 100.687 96.2772 100.609 96.2656V95.8987H101.046V96.2737C100.992 96.2718 100.935 96.2728 100.877 96.2738ZM100.877 94.0238H100.877C100.782 94.0255 100.687 94.0272 100.609 94.0156V93.6487H101.046V94.0237C100.992 94.0218 100.935 94.0228 100.877 94.0238Z" fill="white"/>
<path d="M103.847 12.3851H104.252C106.14 12.3851 107.67 13.9155 107.67 15.8033V85.4506V89.2962C107.67 91.184 106.14 92.7144 104.252 92.7144H103.847C103.599 92.7144 103.397 92.9159 103.397 93.1644V95.6827C103.397 95.9312 103.599 96.1327 103.847 96.1327H104.252C108.028 96.1327 111.089 93.0719 111.089 89.2962V85.4506V15.8033C111.089 12.0276 108.028 8.9668 104.252 8.9668H103.847C103.599 8.9668 103.397 9.16827 103.397 9.4168V11.9351C103.397 12.1836 103.599 12.3851 103.847 12.3851Z" fill="#1D6BF5"/>
<path d="M106.163 12.0156L105.104 10.9565L106.163 9.8974L106.163 12.0156Z" fill="#D9D9D9"/>
<path d="M107.097 12.8516V11.3537H108.594L107.097 12.8516Z" fill="#D9D9D9"/>
<path d="M108.146 14.2988L108.533 12.8521L109.98 13.2397L108.146 14.2988Z" fill="#D9D9D9"/>
<path d="M106.76 92.6016L108.044 93.3726L107.273 94.6567L106.76 92.6016Z" fill="#D9D9D9"/>
<path d="M105.202 93.1973L106.261 94.2564L105.202 95.3155L105.202 93.1973Z" fill="#D9D9D9"/>
<path d="M108.264 90.8301L109.379 89.7147L110.495 90.8301L108.264 90.8301Z" fill="white"/>
<path d="M108.264 89.0498L109.379 87.9344L110.495 89.0498L108.264 89.0498Z" fill="white"/>
<path d="M108.264 87.2686L109.379 86.1531L110.495 87.2686L108.264 87.2686Z" fill="white"/>
<path d="M108.264 85.4883L109.379 84.3729L110.495 85.4883L108.264 85.4883Z" fill="white"/>
<path d="M108.264 83.707L109.379 82.5916L110.495 83.707L108.264 83.707Z" fill="white"/>
<path d="M108.264 81.9258L109.379 80.8104L110.495 81.9258L108.264 81.9258Z" fill="white"/>
<path d="M108.264 80.1455L109.379 79.0301L110.495 80.1455L108.264 80.1455Z" fill="white"/>
<path d="M108.264 78.3643L109.379 77.2488L110.495 78.3643L108.264 78.3643Z" fill="white"/>
<path d="M108.264 76.584L109.379 75.4686L110.495 76.584L108.264 76.584Z" fill="white"/>
<path d="M108.264 74.8027L109.379 73.6873L110.495 74.8027L108.264 74.8027Z" fill="white"/>
<path d="M108.264 73.0215L109.379 71.9061L110.495 73.0215L108.264 73.0215Z" fill="white"/>
<path d="M108.264 71.2412L109.379 70.1258L110.495 71.2412L108.264 71.2412Z" fill="white"/>
<path d="M108.264 69.46L109.379 68.3445L110.495 69.46L108.264 69.46Z" fill="white"/>
<path d="M108.264 67.6797L109.379 66.5643L110.495 67.6797L108.264 67.6797Z" fill="white"/>
<path d="M108.264 65.8984L109.379 64.783L110.495 65.8984L108.264 65.8984Z" fill="white"/>
<path d="M108.264 64.1182L109.379 63.0027L110.495 64.1182L108.264 64.1182Z" fill="white"/>
<path d="M108.264 62.3369L109.379 61.2215L110.495 62.3369L108.264 62.3369Z" fill="white"/>
<path d="M108.264 60.5557L109.379 59.4402L110.495 60.5557L108.264 60.5557Z" fill="white"/>
<path d="M108.264 58.7754L109.379 57.66L110.495 58.7754L108.264 58.7754Z" fill="white"/>
<path d="M108.264 56.9941L109.379 55.8787L110.495 56.9941L108.264 56.9941Z" fill="white"/>
<path d="M108.264 55.2139L109.379 54.0984L110.495 55.2139L108.264 55.2139Z" fill="white"/>
<path d="M108.264 53.4326L109.379 52.3172L110.495 53.4326L108.264 53.4326Z" fill="white"/>
<path d="M108.264 51.6514L109.379 50.5359L110.495 51.6514L108.264 51.6514Z" fill="white"/>
<path d="M108.264 49.8711L109.379 48.7557L110.495 49.8711L108.264 49.8711Z" fill="white"/>
<path d="M108.264 48.0898L109.379 46.9744L110.495 48.0898L108.264 48.0898Z" fill="white"/>
<path d="M108.264 46.3096L109.379 45.1941L110.495 46.3096L108.264 46.3096Z" fill="white"/>
<path d="M108.264 44.5283L109.379 43.4129L110.495 44.5283L108.264 44.5283Z" fill="white"/>
<path d="M108.264 42.748L109.379 41.6326L110.495 42.748L108.264 42.748Z" fill="white"/>
<path d="M108.264 40.9668L109.379 39.8514L110.495 40.9668L108.264 40.9668Z" fill="white"/>
<path d="M108.264 39.1855L109.379 38.0701L110.495 39.1855L108.264 39.1855Z" fill="white"/>
<path d="M108.264 37.4053L109.379 36.2899L110.495 37.4053L108.264 37.4053Z" fill="white"/>
<path d="M108.264 35.624L109.379 34.5086L110.495 35.624L108.264 35.624Z" fill="white"/>
<path d="M108.264 33.8438L109.379 32.7283L110.495 33.8437L108.264 33.8438Z" fill="white"/>
<path d="M108.264 32.0625L109.379 30.9471L110.495 32.0625L108.264 32.0625Z" fill="white"/>
<path d="M108.264 30.2812L109.379 29.1658L110.495 30.2812L108.264 30.2812Z" fill="white"/>
<path d="M108.264 28.501L109.379 27.3856L110.495 28.501L108.264 28.501Z" fill="white"/>
<path d="M108.264 26.7197L109.379 25.6043L110.495 26.7197L108.264 26.7197Z" fill="white"/>
<path d="M108.264 24.9395L109.379 23.824L110.495 24.9395L108.264 24.9395Z" fill="white"/>
<path d="M108.264 23.1582L109.379 22.0428L110.495 23.1582L108.264 23.1582Z" fill="white"/>
<path d="M108.264 21.3779L109.379 20.2625L110.495 21.3779L108.264 21.3779Z" fill="white"/>
<path d="M108.264 19.5967L109.379 18.4813L110.495 19.5967L108.264 19.5967Z" fill="white"/>
<path d="M108.264 17.8154L109.379 16.7L110.495 17.8154L108.264 17.8154Z" fill="white"/>
<path d="M108.32 15.8203L109.379 14.7612L110.439 15.8203H108.32Z" fill="#D9D9D9"/>
<path d="M107.706 91.8281L109.194 91.6606L109.362 93.1491L107.706 91.8281Z" fill="#D9D9D9"/>
<path d="M106.029 14.8819H105.359V16.9987H104.859V14.8819H104.189V14.4355H106.029V14.8819Z" fill="white"/>
<path d="M103.965 16.9987H103.385L102.885 15.9763H102.525V16.9987H102.024V14.4355H103.029C103.158 14.4355 103.275 14.4571 103.378 14.5003C103.481 14.5411 103.569 14.5975 103.641 14.6695C103.713 14.7391 103.767 14.8219 103.803 14.9179C103.841 15.0115 103.86 15.1123 103.86 15.2203C103.86 15.3115 103.847 15.3931 103.821 15.4651C103.797 15.5371 103.763 15.6019 103.72 15.6595C103.677 15.7147 103.626 15.7627 103.569 15.8035C103.514 15.8419 103.455 15.8719 103.392 15.8935L103.965 16.9987ZM103.36 15.2203C103.36 15.1195 103.326 15.0379 103.259 14.9755C103.194 14.9131 103.107 14.8819 102.996 14.8819H102.525V15.5587H102.996C103.107 15.5587 103.194 15.5275 103.259 15.4651C103.326 15.4027 103.36 15.3211 103.36 15.2203Z" fill="white"/>
<path d="M101.709 16.9987H101.187L101.036 16.5451H100.125L99.9702 16.9987H99.4482L100.381 14.4355H100.773L101.709 16.9987ZM100.903 16.1239L100.589 15.1915L100.265 16.1239H100.903Z" fill="white"/>
<path d="M99.5359 14.8819H98.8663V16.9987H98.3659V14.8819H97.6963V14.4355H99.5359V14.8819Z" fill="white"/>
<path d="M97.4157 16.2429C97.4157 16.3677 97.3905 16.4781 97.3401 16.5741C97.2921 16.6701 97.2249 16.7517 97.1385 16.8189C97.0545 16.8837 96.9549 16.9341 96.8397 16.9701C96.7245 17.0037 96.5997 17.0205 96.4653 17.0205C96.2709 17.0205 96.0969 16.9965 95.9433 16.9485C95.7921 16.8981 95.6541 16.8093 95.5293 16.6821L95.8533 16.3581C95.9349 16.4397 96.0285 16.4961 96.1341 16.5273C96.2397 16.5585 96.3525 16.5741 96.4725 16.5741C96.6213 16.5741 96.7341 16.5477 96.8109 16.4949C96.8877 16.4397 96.9261 16.3605 96.9261 16.2573C96.9261 16.1637 96.8997 16.0917 96.8469 16.0413C96.8205 16.0173 96.7905 15.9993 96.7569 15.9873C96.7257 15.9729 96.6801 15.9609 96.6201 15.9513L96.3105 15.9081C96.0921 15.8769 95.9265 15.8061 95.8137 15.6957C95.6913 15.5733 95.6301 15.4053 95.6301 15.1917C95.6301 15.0765 95.6505 14.9721 95.6913 14.8785C95.7321 14.7825 95.7909 14.7009 95.8677 14.6337C95.9445 14.5641 96.0381 14.5101 96.1485 14.4717C96.2589 14.4333 96.3837 14.4141 96.5229 14.4141C96.7005 14.4141 96.8553 14.4369 96.9873 14.4825C97.1193 14.5281 97.2405 14.6049 97.3509 14.7129L97.0341 15.0261C96.9525 14.9493 96.8649 14.9013 96.7713 14.8821C96.6801 14.8605 96.5925 14.8497 96.5085 14.8497C96.3741 14.8497 96.2745 14.8821 96.2097 14.9469C96.1449 15.0093 96.1125 15.0849 96.1125 15.1737C96.1125 15.2073 96.1185 15.2397 96.1305 15.2709C96.1425 15.3021 96.1617 15.3309 96.1881 15.3573C96.2145 15.3813 96.2469 15.4029 96.2853 15.4221C96.3261 15.4389 96.3729 15.4509 96.4257 15.4581L96.7281 15.5013C96.8457 15.5181 96.9429 15.5433 97.0197 15.5769C97.0965 15.6081 97.1625 15.6489 97.2177 15.6993C97.2873 15.7641 97.3377 15.8421 97.3689 15.9333C97.4001 16.0245 97.4157 16.1277 97.4157 16.2429Z" fill="white"/>
<path d="M103.243 88.6067C103.243 88.7027 103.243 88.7987 103.243 88.8947C103.243 88.9883 103.236 89.0795 103.221 89.1683C103.207 89.2571 103.182 89.3423 103.146 89.4239C103.11 89.5055 103.056 89.5823 102.984 89.6543C102.9 89.7383 102.799 89.8007 102.681 89.8415C102.566 89.8799 102.441 89.8991 102.307 89.8991H101.382V87.3359H102.307C102.441 87.3359 102.566 87.3563 102.681 87.3971C102.799 87.4355 102.9 87.4967 102.984 87.5807C103.056 87.6527 103.11 87.7283 103.146 87.8075C103.182 87.8867 103.207 87.9695 103.221 88.0559C103.236 88.1423 103.243 88.2323 103.243 88.3259C103.243 88.4171 103.243 88.5107 103.243 88.6067ZM102.743 88.6067C102.743 88.5107 102.741 88.4279 102.739 88.3583C102.737 88.2863 102.732 88.2239 102.725 88.1711C102.717 88.1183 102.707 88.0739 102.692 88.0379C102.678 88.0019 102.659 87.9695 102.635 87.9407C102.591 87.8879 102.54 87.8483 102.48 87.8219C102.42 87.7955 102.347 87.7823 102.26 87.7823H101.882V89.4527H102.26C102.347 89.4527 102.42 89.4395 102.48 89.4131C102.54 89.3867 102.591 89.3471 102.635 89.2943C102.68 89.2367 102.709 89.1563 102.721 89.0531C102.735 88.9499 102.743 88.8011 102.743 88.6067Z" fill="white"/>
<path d="M100.784 89.8991H100.338L99.3227 88.3259V89.8991H98.8223V87.3359H99.2687L100.284 88.9055V87.3359H100.784V89.8991Z" fill="white"/>
<path d="M98.331 89.8991H96.6426V87.3359H98.331V87.7823H97.143V88.3835H98.1546V88.8299H97.143V89.4527H98.331V89.8991Z" fill="white"/>
<rect x="88.4646" y="67.2039" width="6.12" height="6.12" rx="3.06" fill="#1F6FF8"/>
<rect x="88.4646" y="67.2039" width="6.12" height="6.12" rx="3.06" stroke="white" stroke-width="0.9"/>
<path d="M91.9201 71.7587H91.3351V69.1847L90.6826 69.7517V69.1217L91.3351 68.5547H91.9201V71.7587Z" fill="white"/>
<rect x="68.5457" y="59.2723" width="6.12" height="6.12" rx="3.06" fill="#1F6FF8"/>
<rect x="68.5457" y="59.2723" width="6.12" height="6.12" rx="3.06" stroke="white" stroke-width="0.9"/>
<path d="M72.5248 62.927C72.5248 63.086 72.4978 63.2255 72.4438 63.3455C72.3898 63.4655 72.3163 63.566 72.2233 63.647C72.1303 63.725 72.0223 63.7835 71.8993 63.8225C71.7763 63.8615 71.6458 63.881 71.5078 63.881C71.3758 63.881 71.2483 63.863 71.1253 63.827C71.0053 63.791 70.8973 63.7355 70.8013 63.6605C70.7083 63.5825 70.6333 63.485 70.5763 63.368C70.5193 63.248 70.4893 63.104 70.4863 62.936H71.0713C71.0743 63.008 71.0878 63.071 71.1118 63.125C71.1358 63.176 71.1673 63.2195 71.2063 63.2555C71.2453 63.2885 71.2903 63.314 71.3413 63.332C71.3953 63.347 71.4508 63.3545 71.5078 63.3545C71.6338 63.3545 71.7373 63.317 71.8183 63.242C71.8993 63.164 71.9398 63.053 71.9398 62.909C71.9398 62.774 71.9008 62.6675 71.8228 62.5895C71.7448 62.5085 71.6338 62.468 71.4898 62.468H71.4043V61.9595H71.4898C71.6338 61.9595 71.7373 61.922 71.8003 61.847C71.8633 61.769 71.8948 61.673 71.8948 61.559C71.8948 61.424 71.8558 61.322 71.7778 61.253C71.6998 61.184 71.6083 61.1495 71.5033 61.1495C71.3923 61.1495 71.2993 61.184 71.2243 61.253C71.1523 61.319 71.1133 61.4135 71.1073 61.5365H70.5223C70.5253 61.3925 70.5523 61.265 70.6033 61.154C70.6573 61.04 70.7278 60.944 70.8148 60.866C70.9018 60.788 71.0038 60.728 71.1208 60.686C71.2408 60.644 71.3683 60.623 71.5033 60.623C71.6443 60.623 71.7748 60.6455 71.8948 60.6905C72.0148 60.7355 72.1183 60.7985 72.2053 60.8795C72.2923 60.9605 72.3598 61.058 72.4078 61.172C72.4558 61.283 72.4798 61.406 72.4798 61.541C72.4798 61.715 72.4438 61.8545 72.3718 61.9595C72.3028 62.0615 72.2158 62.141 72.1108 62.198C72.2248 62.258 72.3223 62.3465 72.4033 62.4635C72.4843 62.5775 72.5248 62.732 72.5248 62.927Z" fill="white"/>
<g filter="url(#filter0_d_16897_29226)">
<rect x="60.3252" y="63.2305" width="7.02" height="7.02" rx="3.51" fill="#1F6FF8" shape-rendering="crispEdges"/>
<rect x="60.7752" y="63.6805" width="6.12" height="6.12" rx="3.06" stroke="white" stroke-width="0.9" shape-rendering="crispEdges"/>
<path d="M64.9819 67.7808H64.6894V68.2352H64.1269V67.7808H62.8174V67.2273L63.9154 65.0312H64.5544L63.4564 67.2273H64.1269V66.6288H64.6894V67.2273H64.9819V67.7808Z" fill="white"/>
</g>
<rect x="50.8055" y="84.2801" width="6.12" height="6.12" rx="3.06" fill="#1F6FF8"/>
<rect x="50.8055" y="84.2801" width="6.12" height="6.12" rx="3.06" stroke="white" stroke-width="0.9"/>
<path d="M54.7829 87.7549C54.7829 87.9349 54.7649 88.0924 54.7289 88.2274C54.6929 88.3594 54.6164 88.4839 54.4994 88.6009C54.4274 88.6729 54.3329 88.7344 54.2159 88.7854C54.1019 88.8364 53.9609 88.8619 53.7929 88.8619C53.6249 88.8619 53.4809 88.8364 53.3609 88.7854C53.2409 88.7344 53.1464 88.6744 53.0774 88.6054C52.9784 88.5064 52.9124 88.3999 52.8794 88.2859C52.8464 88.1719 52.8254 88.0564 52.8164 87.9394H53.4014C53.4164 88.0654 53.4539 88.1629 53.5139 88.2319C53.5769 88.3009 53.6699 88.3354 53.7929 88.3354C53.9099 88.3354 54.0029 88.3009 54.0719 88.2319C54.1229 88.1809 54.1559 88.1149 54.1709 88.0339C54.1889 87.9499 54.1979 87.8569 54.1979 87.7549C54.1979 87.5689 54.1679 87.4264 54.1079 87.3274C54.0509 87.2284 53.9504 87.1789 53.8064 87.1789C53.6864 87.1789 53.5964 87.2074 53.5364 87.2644C53.4794 87.3184 53.4404 87.3769 53.4194 87.4399H52.8839V85.6309H54.7109V86.1574H53.4149V86.8459C53.4569 86.8039 53.5199 86.7664 53.6039 86.7334C53.6909 86.7004 53.7884 86.6839 53.8964 86.6839C54.0314 86.6839 54.1484 86.7034 54.2474 86.7424C54.3464 86.7814 54.4289 86.8339 54.4949 86.8999C54.6209 87.0259 54.7004 87.1624 54.7334 87.3094C54.7664 87.4534 54.7829 87.6019 54.7829 87.7549Z" fill="white"/>
<rect x="42.7059" y="29.1668" width="6.12" height="6.12" rx="3.06" fill="#1F6FF8"/>
<rect x="42.7059" y="29.1668" width="6.12" height="6.12" rx="3.06" stroke="white" stroke-width="0.9"/>
<path d="M46.6731 33.7447H44.7246V33.2182L45.9216 31.8277C45.9816 31.7587 46.0236 31.6957 46.0476 31.6387C46.0746 31.5817 46.0881 31.5157 46.0881 31.4407C46.0881 31.3207 46.0551 31.2247 45.9891 31.1527C45.9231 31.0777 45.8271 31.0402 45.7011 31.0402C45.6531 31.0402 45.6051 31.0477 45.5571 31.0627C45.5121 31.0747 45.4701 31.0972 45.4311 31.1302C45.3951 31.1602 45.3651 31.2022 45.3411 31.2562C45.3201 31.3072 45.3096 31.3717 45.3096 31.4497H44.7246C44.7246 31.3027 44.7486 31.1722 44.7966 31.0582C44.8476 30.9412 44.9166 30.8422 45.0036 30.7612C45.0936 30.6802 45.1971 30.6187 45.3141 30.5767C45.4341 30.5347 45.5631 30.5137 45.7011 30.5137C45.8421 30.5137 45.9726 30.5362 46.0926 30.5812C46.2126 30.6232 46.3146 30.6847 46.3986 30.7657C46.4856 30.8437 46.5531 30.9412 46.6011 31.0582C46.6491 31.1722 46.6731 31.3012 46.6731 31.4452C46.6731 31.5232 46.6656 31.5937 46.6506 31.6567C46.6356 31.7167 46.6131 31.7752 46.5831 31.8322C46.5561 31.8892 46.5201 31.9462 46.4751 32.0032C46.4331 32.0572 46.3851 32.1157 46.3311 32.1787L45.4356 33.2182H46.6731V33.7447Z" fill="white"/>
<rect x="68.8338" y="90.6141" width="6.12" height="6.12" rx="3.06" fill="#1F6FF8"/>
<rect x="68.8338" y="90.6141" width="6.12" height="6.12" rx="3.06" stroke="white" stroke-width="0.9"/>
<path d="M72.7998 94.1968C72.7998 94.3558 72.7743 94.4968 72.7233 94.6198C72.6723 94.7428 72.6018 94.8478 72.5118 94.9348C72.4218 95.0188 72.3153 95.0833 72.1923 95.1283C72.0723 95.1733 71.9418 95.1958 71.8008 95.1958C71.6598 95.1958 71.5278 95.1748 71.4048 95.1328C71.2848 95.0878 71.1798 95.0233 71.0898 94.9393C70.9998 94.8553 70.9293 94.7518 70.8783 94.6288C70.8273 94.5058 70.8018 94.3648 70.8018 94.2058C70.8018 94.0588 70.8288 93.9163 70.8828 93.7783C70.9368 93.6403 70.9998 93.4978 71.0718 93.3508L71.7468 91.9648H72.3858L71.7198 93.2878C71.7588 93.2728 71.7978 93.2623 71.8368 93.2563C71.8788 93.2503 71.9193 93.2473 71.9583 93.2473C72.0663 93.2473 72.1698 93.2698 72.2688 93.3148C72.3708 93.3568 72.4608 93.4183 72.5388 93.4993C72.6198 93.5803 72.6828 93.6808 72.7278 93.8008C72.7758 93.9178 72.7998 94.0498 72.7998 94.1968ZM72.2148 94.2013C72.2148 94.0573 72.1773 93.9433 72.1023 93.8593C72.0273 93.7753 71.9268 93.7333 71.8008 93.7333C71.6808 93.7333 71.5818 93.7738 71.5038 93.8548C71.4258 93.9358 71.3868 94.0513 71.3868 94.2013C71.3868 94.3513 71.4258 94.4668 71.5038 94.5478C71.5818 94.6288 71.6808 94.6693 71.8008 94.6693C71.9208 94.6693 72.0198 94.6288 72.0978 94.5478C72.1758 94.4668 72.2148 94.3513 72.2148 94.2013Z" fill="white"/>
<rect x="90.2645" y="90.6141" width="6.12" height="6.12" rx="3.06" fill="#1F6FF8"/>
<rect x="90.2645" y="90.6141" width="6.12" height="6.12" rx="3.06" stroke="white" stroke-width="0.9"/>
<path d="M94.2787 92.4913L93.2392 95.1688H92.6047L93.6442 92.4913H92.7982V92.9953H92.2402V91.9648H94.2787V92.4913Z" fill="white"/>
<defs>
<filter id="filter0_d_16897_29226" x="56.7252" y="59.6305" width="14.22" height="14.2195" filterUnits="userSpaceOnUse" color-interpolation-filters="sRGB">
<feFlood flood-opacity="0" result="BackgroundImageFix"/>
<feColorMatrix in="SourceAlpha" type="matrix" values="0 0 0 0 0 0 0 0 0 0 0 0 0 0 0 0 0 0 127 0" result="hardAlpha"/>
<feOffset/>
<feGaussianBlur stdDeviation="1.8"/>
<feComposite in2="hardAlpha" operator="out"/>
<feColorMatrix type="matrix" values="0 0 0 0 0.0666667 0 0 0 0 0.0666667 0 0 0 0 0.0862745 0 0 0 0.5 0"/>
<feBlend mode="normal" in2="BackgroundImageFix" result="effect1_dropShadow_16897_29226"/>
<feBlend mode="normal" in="SourceGraphic" in2="effect1_dropShadow_16897_29226" result="shape"/>
</filter>
<linearGradient id="paint0_linear_16897_29226" x1="-1.92428e-08" y1="71" x2="55.285" y2="71.2009" gradientUnits="userSpaceOnUse">
<stop stop-color="white" stop-opacity="0"/>
<stop offset="1" stop-color="white"/>
</linearGradient>
</defs>
</svg>
